<?xml version="1.0" encoding="UTF-8"?>
<svg class="ui__icon-svg" width="20px" height="20px" viewBox="0 0 20 20" version="1.1" xmlns="http://www.w3.org/2000/svg" xmlns:xlink="http://www.w3.org/1999/xlink">
  <g id="icon--profile" stroke="none" stroke-width="1" fill="none" fill-rule="evenodd" transform="translate(1.000000, 2.000000)">
    <path d="M11.25,3.42857143 L17.4375,3.42857143 C17.7485625,3.42857143 18,3.17257143 18,2.85714286 C18,2.54171429 17.7485625,2.28571429 17.4375,2.28571429 L11.25,2.28571429 C10.9389375,2.28571429 10.6875,2.54171429 10.6875,2.85714286 C10.6875,3.17257143 10.9389375,3.42857143 11.25,3.42857143" id="Fill-1" fill="#444444"></path>
    <path d="M17.4375,5.71428571 L11.25,5.71428571 C10.9389375,5.71428571 10.6875,5.97028571 10.6875,6.28571429 C10.6875,6.60114286 10.9389375,6.85714286 11.25,6.85714286 L17.4375,6.85714286 C17.7485625,6.85714286 18,6.60114286 18,6.28571429 C18,5.97028571 17.7485625,5.71428571 17.4375,5.71428571" id="Fill-3" fill="#444444"></path>
    <path d="M17.4375,9.14285714 L14.0625,9.14285714 C13.7514375,9.14285714 13.5,9.39828571 13.5,9.71428571 C13.5,10.0302857 13.7514375,10.2857143 14.0625,10.2857143 L17.4375,10.2857143 C17.7485625,10.2857143 18,10.0302857 18,9.71428571 C18,9.39828571 17.7485625,9.14285714 17.4375,9.14285714" id="Fill-5" fill="#444444"></path>
    <path d="M17.4375,12.5714286 L14.0625,12.5714286 C13.7514375,12.5714286 13.5,12.8268571 13.5,13.1428571 C13.5,13.4588571 13.7514375,13.7142857 14.0625,13.7142857 L17.4375,13.7142857 C17.7485625,13.7142857 18,13.4588571 18,13.1428571 C18,12.8268571 17.7485625,12.5714286 17.4375,12.5714286" id="Fill-7" fill="#444444"></path>
    <path d="M10.125,14.8571429 L1.125,14.8571429 L1.125,11.8617143 C1.125,11.0948571 1.611,10.4342857 2.334375,10.2165714 C4.52925,9.55714286 6.6369375,9.54114286 8.911125,10.2234286 C9.6373125,10.4411429 10.125,11.1034286 10.125,11.8702857 L10.125,14.8571429 Z M9.2295,9.12742857 C6.7483125,8.38342857 4.417875,8.39771429 2.0154375,9.12057143 C0.8094375,9.48342857 0,10.5845714 0,11.8617143 L0,15.4285714 C0,15.7445714 0.252,16 0.5625,16 L10.6875,16 C10.9985625,16 11.25,15.7445714 11.25,15.4285714 L11.25,11.8702857 C11.25,10.5925714 10.4383125,9.48971429 9.2295,9.12742857 L9.2295,9.12742857 Z" id="Fill-9" fill="#444444"></path>
    <path d="M5.625,1.14285714 C6.865875,1.14285714 7.875,2.168 7.875,3.42857143 C7.875,4.71428571 6.836625,6.28571429 5.625,6.28571429 C4.413375,6.28571429 3.375,4.71428571 3.375,3.42857143 C3.375,2.168 4.384125,1.14285714 5.625,1.14285714 M5.625,7.42857143 C7.5256875,7.42857143 9,5.27828571 9,3.42857143 C9,1.53771429 7.4863125,0 5.625,0 C3.7636875,0 2.25,1.53771429 2.25,3.42857143 C2.25,5.27828571 3.7243125,7.42857143 5.625,7.42857143" id="Fill-11" fill="#FF8000"></path>
  </g>
</svg>