<?xml version="1.0" encoding="UTF-8"?>
<svg class="ui__icon-svg" width="20px" height="20px" viewBox="0 0 20 20" version="1.1" xmlns="http://www.w3.org/2000/svg" xmlns:xlink="http://www.w3.org/1999/xlink">
  <g id="icon--clipboard" stroke="none" stroke-width="1" fill="none" fill-rule="evenodd" transform="translate(3.000000, 0.000000)">
    <path d="M15,18.40625 L15,2.96875 C15,2.641 14.7421154,2.375 14.4230769,2.375 L12.6923077,2.375 C12.3732692,2.375 12.1153846,2.641 12.1153846,2.96875 C12.1153846,3.2965 12.3732692,3.5625 12.6923077,3.5625 L13.8461538,3.5625 L13.8461538,17.8125 L1.15384615,17.8125 L1.15384615,3.5625 L2.30769231,3.5625 C2.62615385,3.5625 2.88461538,3.2965 2.88461538,2.96875 C2.88461538,2.641 2.62615385,2.375 2.30769231,2.375 L0.576923077,2.375 C0.258461538,2.375 0,2.641 0,2.96875 L0,18.40625 C0,18.7345938 0.258461538,19 0.576923077,19 L14.4230769,19 C14.7421154,19 15,18.7345938 15,18.40625 L15,18.40625 Z M4.61538462,2.96875 L5.76923077,2.96875 C6.08769231,2.96875 6.34615385,2.70275 6.34615385,2.375 C6.34615385,1.72009375 6.86365385,1.1875 7.5,1.1875 C8.13634615,1.1875 8.65384615,1.72009375 8.65384615,2.375 C8.65384615,2.70275 8.91173077,2.96875 9.23076923,2.96875 L10.3846154,2.96875 L10.3846154,4.15625 L4.61538462,4.15625 L4.61538462,2.96875 Z M11.5384615,4.75 L11.5384615,2.375 C11.5384615,2.04725 11.2805769,1.78125 10.9615385,1.78125 L9.73442308,1.78125 C9.47826923,0.75821875 8.57307692,0 7.5,0 C6.42692308,0 5.52230769,0.75821875 5.265,1.78125 L4.03846154,1.78125 C3.72,1.78125 3.46153846,2.04725 3.46153846,2.375 L3.46153846,4.75 C3.46153846,5.07775 3.72,5.34375 4.03846154,5.34375 L10.9615385,5.34375 C11.2805769,5.34375 11.5384615,5.07775 11.5384615,4.75 L11.5384615,4.75 Z" id="Page-1" fill="#4D4D4D"></path>
    <path d="M6.51519231,13.4822813 L4.78442308,11.7010313 C4.55884615,11.468875 4.55884615,11.093625 4.78442308,10.8614688 C5.01,10.6293125 5.37461538,10.6293125 5.60019231,10.8614688 L6.92307692,12.2229375 L9.97673077,9.08021875 C10.2023077,8.8480625 10.5669231,8.8480625 10.7925,9.08021875 C11.0180769,9.312375 11.0180769,9.687625 10.7925,9.91978125 L7.33096154,13.4822813 C7.21846154,13.5980625 7.07076923,13.65625 6.92307692,13.65625 C6.77538462,13.65625 6.62769231,13.5980625 6.51519231,13.4822813 Z" id="Path" fill="#FF8000"></path>
  </g>
</svg>