<?xml version="1.0" encoding="UTF-8"?>
<svg class="ui__icon-svg" width="20px" height="20px" viewBox="0 0 20 20" version="1.1" xmlns="http://www.w3.org/2000/svg" xmlns:xlink="http://www.w3.org/1999/xlink">
  <g id="icon--chimes" stroke="none" stroke-width="1.6" fill="none" fill-rule="evenodd" transform="translate(11.017459, 10.000000) rotate(15.000000) translate(-11.017459, -10.000000) translate(3.877459, 1.500000)">
    <path d="M8.81429762,13.1889778 L8.81429762,14.8097304 C8.81429762,15.6462099 8.12976631,16.3307807 7.29289881,16.3307807 C6.45603131,16.3307807 5.7715,15.6462099 5.7715,14.8097304 L5.7715,13.1889778" id="Stroke-1" stroke="#FF8000"></path>
    <path d="M2.0137431,10.1763169 L1.52139881,10.1763169 C0.68453131,10.1763169 1.42108547e-13,10.8606914 1.42108547e-13,11.6973672 C1.42108547e-13,12.534043 0.68453131,13.2184175 1.52139881,13.2184175 L12.3213673,13.2184175 C13.1582348,13.2184175 13.8427661,12.534043 13.8427661,11.6973672 C13.8427661,10.8606914 13.1582348,10.1763169 12.3213673,10.1763169 L11.8292193,10.1763169 L11.8292193,7.37954709 C11.8292193,4.66972244 9.63192679,2.47293333 6.92148119,2.47293333 C4.21083929,2.47293333 2.0137431,4.66972244 2.0137431,7.37954709 C2.0137431,7.37954709 2.0137431,10.1763169 2.0137431,10.1763169 Z" id="Stroke-3" stroke="#4D4D4D"></path>
    <path d="M5.7715,2.74927382 L5.7715,1.52105026 C5.7715,0.684570751 6.45603131,8.8817842e-15 7.29289881,8.8817842e-15 C8.12976631,8.8817842e-15 8.81429762,0.684570751 8.81429762,1.52105026 L8.81429762,2.74927382" id="Stroke-5" stroke="#4D4D4D"></path>
  </g>
</svg>