<?xml version="1.0" encoding="UTF-8"?>
<svg class="ui__icon-svg" width="20px" height="20px" viewBox="0 0 20 20" version="1.1" xmlns="http://www.w3.org/2000/svg" xmlns:xlink="http://www.w3.org/1999/xlink">
  <g id="icon--research" stroke="none" stroke-width="1" fill="none" fill-rule="evenodd" transform="translate(2.000000, 3.000000)">
    <path d="M0.568421053,5.76923077 L5.68421053,5.76923077 C5.99797895,5.76923077 6.25263158,5.51076923 6.25263158,5.19230769 C6.25263158,4.87384615 5.99797895,4.61538462 5.68421053,4.61538462 L0.568421053,4.61538462 C0.254652632,4.61538462 0,4.87384615 0,5.19230769 C0,5.51076923 0.254652632,5.76923077 0.568421053,5.76923077" id="Fill-1" fill="#4D4D4D"></path>
    <path d="M0.568421053,1.15384615 L11.3684211,1.15384615 C11.6827579,1.15384615 11.9368421,0.895384615 11.9368421,0.576923077 C11.9368421,0.258461538 11.6827579,0 11.3684211,0 L0.568421053,0 C0.254652632,0 0,0.258461538 0,0.576923077 C0,0.895384615 0.254652632,1.15384615 0.568421053,1.15384615" id="Fill-3" fill="#4D4D4D"></path>
    <path d="M11.3684211,13.8461538 L0.568421053,13.8461538 C0.254652632,13.8461538 0,14.1040385 0,14.4230769 C0,14.7421154 0.254652632,15 0.568421053,15 L11.3684211,15 C11.6827579,15 11.9368421,14.7421154 11.9368421,14.4230769 C11.9368421,14.1040385 11.6827579,13.8461538 11.3684211,13.8461538" id="Fill-5" fill="#4D4D4D"></path>
    <path d="M0.568421053,10.3846154 L5.68421053,10.3846154 C5.99797895,10.3846154 6.25263158,10.1267308 6.25263158,9.80769231 C6.25263158,9.48865385 5.99797895,9.23076923 5.68421053,9.23076923 L0.568421053,9.23076923 C0.254652632,9.23076923 0,9.48865385 0,9.80769231 C0,10.1267308 0.254652632,10.3846154 0.568421053,10.3846154" id="Fill-7" fill="#4D4D4D"></path>
    <g id="magnifying-glass" transform="translate(7.389474, 3.461538)">
      <path d="M1.13684211,4.03846154 C1.13684211,2.44788462 2.41181053,1.15384615 3.97894737,1.15384615 C5.54608421,1.15384615 6.82105263,2.44788462 6.82105263,4.03846154 C6.82105263,5.62903846 5.54608421,6.92307692 3.97894737,6.92307692 C2.41181053,6.92307692 1.13684211,5.62903846 1.13684211,4.03846154 M9.49661053,8.82288462 L7.16153684,6.45288462 C7.65947368,5.77846154 7.95789474,4.94365385 7.95789474,4.03846154 C7.95789474,1.81153846 6.17248421,0 3.97894737,0 C1.78541053,0 0,1.81153846 0,4.03846154 C0,6.26480769 1.78541053,8.07692308 3.97894737,8.07692308 C4.8708,8.07692308 5.69330526,7.77403846 6.35778947,7.26865385 L8.69286316,9.63865385 C8.80370526,9.75115385 8.94922105,9.80769231 9.09473684,9.80769231 C9.24025263,9.80769231 9.38576842,9.75115385 9.49661053,9.63865385 C9.71886316,9.41307692 9.71886316,9.04846154 9.49661053,8.82288462" id="Fill-9" fill="#FF8000"></path>
    </g>
  </g>
</svg>