<?xml version="1.0" encoding="UTF-8"?>
<svg width="20px" height="20px" viewBox="0 0 20 20" version="1.1" xmlns="http://www.w3.org/2000/svg" xmlns:xlink="http://www.w3.org/1999/xlink">
    <g stroke="currentColor" stroke-width="1.2" fill="none">
        <g transform="translate(1.600000, 12.000000)">
            <path d="M4.58823529,0 L1.41176471,0 C0.632068588,0 1.56737368e-16,0.632068588 0,1.41176471 L0,4.58823529 C1.56737368e-16,5.36793141 0.632068588,6 1.41176471,6 L4.58823529,6 C5.36793141,6 6,5.36793141 6,4.58823529 L6,1.41176471 C6,0.632068588 5.36793141,0 4.58823529,0 Z"></path>
            <g stroke-linecap="round" transform="translate(8.400000, 0.000000)">
                <path d="M0.5,1.5 L8.5,1.5"></path>
                <path d="M0.5,5 L8.5,5"></path>
            </g>
        </g>
        
        <g transform="translate(1.600000, 3.000000)">
            <path d="M4.58823529,0 L1.41176471,0 C0.632068588,0 1.56737368e-16,0.632068588 0,1.41176471 L0,4.58823529 C1.56737368e-16,5.36793141 0.632068588,6 1.41176471,6 L4.58823529,6 C5.36793141,6 6,5.36793141 6,4.58823529 L6,1.41176471 C6,0.632068588 5.36793141,0 4.58823529,0 Z"></path>
            <g stroke-linecap="round" transform="translate(8.400000, 0.000000)">
                <path d="M0.5,1.5 L8.5,1.5"></path>
                <path d="M0.5,5 L8.5,5"></path>
            </g>
        </g>
    </g>
</svg>