<?xml version="1.0" encoding="UTF-8"?>
<svg width="20px" height="20px" viewBox="0 0 20 20" version="1.1" xmlns="http://www.w3.org/2000/svg" xmlns:xlink="http://www.w3.org/1999/xlink">
    <g stroke="none" stroke-width="1" fill="currentColor" transform="translate(2.000000, 4.000000)">
        <path d="M16,0.6 C16,0.9312 15.6416,1.2 15.2,1.2 L0.8,1.2 C0.3584,1.2 0,0.9312 0,0.6 C0,0.2688 0.3584,0 0.8,0 L15.2,0 C15.6416,0 16,0.2688 16,0.6"></path>
        <path d="M13,5.6 C13,5.9312 12.7013333,6.2 12.3333333,6.2 L3.66666667,6.2 C3.29866667,6.2 3,5.9312 3,5.6 C3,5.2688 3.29866667,5 3.66666667,5 L12.3333333,5 C12.7013333,5 13,5.2688 13,5.6"></path>
        <path d="M10,10.6 C10,10.9312 9.85066667,11.2 9.66666667,11.2 L6.33333333,11.2 C6.14933333,11.2 6,10.9312 6,10.6 C6,10.2688 6.14933333,10 6.33333333,10 L9.66666667,10 C9.85066667,10 10,10.2688 10,10.6"></path>
    </g>
</svg>