<?xml version="1.0" encoding="UTF-8"?>
<svg width="20px" height="20px" viewBox="0 0 20 20" version="1.1" xmlns="http://www.w3.org/2000/svg" xmlns:xlink="http://www.w3.org/1999/xlink">
    <g stroke="none" stroke-width="1" fill="none" transform="translate(2.000000, 2.000000)">
        <g fill="currentColor" transform="translate(6.777778, 2.000000)">
            <path d="M1.97222222,6.83276253 L1.97222222,0.75 C1.97222222,0.335786438 1.63643578,0 1.22222222,0 C0.80800866,0 0.472222222,0.335786438 0.472222222,0.75 L0.472222222,6.83276253 C0.472222222,7.24697609 0.80800866,7.58276253 1.22222222,7.58276253 C1.63643578,7.58276253 1.97222222,7.24697609 1.97222222,6.83276253 Z"></path>
            <circle cx="1.2722222" cy="9.79999998" r="1"></circle>
        </g>

        <path stroke="currentColor" stroke-width="1.2" d="M8,16 C3.5862069,16 0,12.4137931 0,8 C0,3.5862069 3.5862069,0 8,0 C12.4137931,0 16,3.5862069 16,8 C16,12.4137931 12.4137931,16 8,16 Z"></path>
    </g>
</svg>