<?xml version="1.0" encoding="UTF-8"?>
<svg width="20px" height="20px" viewBox="0 0 20 20" version="1.1" xmlns="http://www.w3.org/2000/svg" xmlns:xlink="http://www.w3.org/1999/xlink">
    <g fill="currentColor" stroke="none" stroke-width="1" transform="translate(3.000000, 2.000000)">
        <path d="M12.5,6.25 C12.5,2.80375 9.69625,0 6.25,0 C2.80375,0 0,2.80375 0,6.25 C0,9.69625 2.80375,12.5 6.25,12.5 C9.69625,12.5 12.5,9.69625 12.5,6.25 Z M6.25,12 C3.0795,12 0.5,9.4205 0.5,6.25 C0.5,3.0795 3.0795,0.5 6.25,0.5 C9.4205,0.5 12,3.0795 12,6.25 C12,9.4205 9.4205,12 6.25,12 Z"></path>
        <path d="M14.88375,13.82325 L11.52275,10.462 C11.2095,10.8535 10.85375,11.20925 10.46225,11.5225 L13.82325,14.88375 C13.921,14.9815 14.07925,14.9815 14.17675,14.88375 L14.88375,14.17675 C14.9815,14.07925 14.9815,13.92075 14.88375,13.82325 Z"></path>
    </g>
</svg>