<?xml version="1.0" encoding="UTF-8"?>
<svg width="20px" height="20px" viewBox="0 0 20 20" version="1.1" xmlns="http://www.w3.org/2000/svg" xmlns:xlink="http://www.w3.org/1999/xlink">
    <g stroke="none" stroke-width="1" fill="currentColor" transform="translate(1.000000, 1.000000)">
        <path d="M8.47340426,0 L1.62765957,0.167553191 C0.813829787,0.191489362 0.191489362,0.837765957 0.167553191,1.62765957 L0,8.47340426 C0,8.88031915 0.143617021,9.28723404 0.430851064,9.57446809 L7.875,17.018617 C8.49734043,17.6409574 9.33510638,18 10.2207447,18 C11.106383,18 11.9441489,17.6648936 12.5664894,17.018617 L17.018617,12.5904255 C17.6409574,11.9680851 18,11.1303191 18,10.2446809 C18,9.35904255 17.6648936,8.5212766 17.018617,7.89893617 L9.57446809,0.430851064 C9.28723404,0.143617021 8.88031915,0 8.47340426,0 Z M16.7699997,10.2827847 C16.7699997,10.7988131 16.5734175,11.2902688 16.2048257,11.6588606 L11.6588606,16.2048257 C11.2902688,16.5734175 10.7988131,16.7699997 10.2827847,16.7699997 C9.76675619,16.7699997 9.2753005,16.5734175 8.90670874,16.2048257 L1.26457279,8.56268976 C1.24000001,8.53811697 1.24000001,8.53811697 1.24000001,8.51354419 L1.4120095,1.48572785 C1.4120095,1.46115507 1.43658228,1.4120095 1.48572785,1.4120095 L8.51354419,1.24000001 C8.51354419,1.24000001 8.51354419,1.24000001 8.51354419,1.24000001 C8.53811697,1.24000001 8.53811697,1.24000001 8.56268976,1.26457279 L16.2048257,8.90670874 C16.5734175,9.2753005 16.7699997,9.76675619 16.7699997,10.2827847 Z"></path>
        <path d="M4.38979592,4.38285431 C3.33673469,5.43890359 3.33673469,7.15805358 4.38979592,8.21410286 C4.90408163,8.72984786 5.61428571,9 6.3,9 C6.98571429,9 7.67142857,8.72984786 8.21020408,8.21410286 C9.26326531,7.15805358 9.26326531,5.43890359 8.21020408,4.38285431 C7.15714286,3.32680503 5.44285714,3.35136432 4.38979592,4.38285431 Z M7.38426637,7.37353019 C6.81069534,7.94872872 5.84468097,7.94872872 5.240922,7.37353019 C4.66735097,6.79833165 4.66735097,5.82957623 5.240922,5.22410409 C5.54280149,4.92136802 5.93524482,4.76999998 6.29750021,4.76999998 C6.68994354,4.76999998 7.08238688,4.92136802 7.35407842,5.22410409 C7.9578374,5.79930262 7.9578374,6.76805805 7.38426637,7.37353019 Z"></path>
    </g>
</svg>