<?xml version="1.0" encoding="UTF-8"?>
<svg width="20px" height="20px" viewBox="0 0 20 20" version="1.1" xmlns="http://www.w3.org/2000/svg" xmlns:xlink="http://www.w3.org/1999/xlink">
    <g fill="currentColor" stroke="none" stroke-width="1" transform="translate(1.000000, 5.000000)">
        <path d="M11.5,0.6 C11.5,0.9312 11.2424,1.2 10.925,1.2 L0.575,1.2 C0.2576,1.2 0,0.9312 0,0.6 C0,0.2688 0.2576,0 0.575,0 L10.925,0 C11.2424,0 11.5,0.2688 11.5,0.6"></path>
        <path d="M9.44444444,4.2 L0.555555556,4.2 C0.248888889,4.2 0,3.9312 0,3.6 C0,3.2688 0.248888889,3 0.555555556,3 L9.44444444,3 C9.75111111,3 10,3.2688 10,3.6 C10,3.9312 9.75111111,4.2 9.44444444,4.2 Z"></path>
        <path d="M7.93333333,7.20000005 L0.566666667,7.20000005 C0.253866667,7.20000005 0,6.93120004 0,6.60000002 C0,6.26880001 0.253866667,6 0.566666667,6 L7.93333333,6 C8.24613333,6 8.5,6.26880001 8.5,6.60000002 C8.5,6.93120004 8.24613333,7.20000005 7.93333333,7.20000005 Z"></path>
        <path d="M6.41666667,10.2 L0.583333333,10.2 C0.261333333,10.2 0,9.9312 0,9.6 C0,9.2688 0.261333333,9 0.583333333,9 L6.41666667,9 C6.73866667,9 7,9.2688 7,9.6 C7,9.9312 6.73866667,10.2 6.41666667,10.2 Z"></path>
        
        <path d="M11.41825,7.1759326 C11.65255,6.9413558 12.03265,6.9413558 12.26695,7.1759326 L14.81245,9.72443984 C15.04675,9.95931699 15.04675,10.3395657 14.81245,10.5738421 C14.57815,10.8087193 14.19835,10.8087193 13.96375,10.5738421 L11.41825,8.0253349 C11.18425,7.79105845 11.18425,7.4105094 11.41825,7.1759326"></path>
        <path d="M17.35819,7.1759326 C17.59219,7.4105094 17.59219,7.79105845 17.35819,8.0253349 L14.81269,10.5738421 C14.57809,10.8087193 14.19829,10.8087193 13.96399,10.5738421 C13.72969,10.3395657 13.72969,9.95931699 13.96399,9.72443984 L16.50949,7.1759326 C16.74379,6.9413558 17.12389,6.9413558 17.35819,7.1759326"></path>
        <path d="M14.4000002,0 C14.7315002,0 15.0000002,0.224 15.0000002,0.5 L15.0000002,9.5 C15.0000002,9.776 14.7315002,10 14.4000002,10 C14.0688002,10 13.8000002,9.776 13.8000002,9.5 L13.8000002,0.5 C13.8000002,0.224 14.0688002,0 14.4000002,0"></path>
    </g>
</svg>