<?xml version="1.0" encoding="UTF-8"?>
<svg width="20px" height="20px" viewBox="0 0 20 20" version="1.1" xmlns="http://www.w3.org/2000/svg" xmlns:xlink="http://www.w3.org/1999/xlink">
    <g fill="none" stroke="none" stroke-width="1" transform="translate(2.000000, 2.000000)">
        <g transform="translate(5.777778, 4.000000)">
            <path stroke="currentColor" stroke-width="1.5" stroke-linecap="round" stroke-linejoin="round" d="M0,2.16060043 C0,0.941552807 1.01587302,-0.0489233831 2.23492063,0.00187026767 C3.37777778,0.0272670931 4.31746032,0.966949633 4.34285714,2.10980678 C4.36825397,3.02409249 3.80952381,3.8367909 3.02222222,4.16694963 C2.51428571,4.39552106 2.16000027,4.85266392 2.16000027,5.41139408"></path>
            <circle fill="currentColor" cx="2.13333331" cy="7.91111109" r="1"></circle>
        </g>
        <path stroke="currentColor" stroke-width="1.2" d="M8,16 C3.5862069,16 0,12.4137931 0,8 C0,3.5862069 3.5862069,0 8,0 C12.4137931,0 16,3.5862069 16,8 C16,12.4137931 12.4137931,16 8,16 Z"></path>
    </g>
</svg>