<?xml version="1.0" encoding="UTF-8"?>
<svg class="ui__icon-svg" width="20px" height="20px" viewBox="0 0 20 20" version="1.1" xmlns="http://www.w3.org/2000/svg" xmlns:xlink="http://www.w3.org/1999/xlink">
  <g id="icon--user-guides" stroke="#4D4D4D" stroke-width="1" fill="none" fill-rule="evenodd" transform="translate(3.000000, 1.000000)">
    <polygon id="Shape" stroke-width="1.5" stroke-linecap="square" transform="translate(7.587413, 9.207207) scale(-1, 1) rotate(-180.000000) translate(-7.587413, -9.207207) " points="10.1165501 18 0 18 0 14.003276 0 2.81244881 0 0.414414414 15.1748252 0.414414414 15.1748252 13.2039312"></polygon>
    <polyline id="Shape" stroke-width="1.5" transform="translate(12.645688, 2.812449) scale(-1, 1) rotate(-180.000000) translate(-12.645688, -2.812449) " points="10.1165501 5.21048321 10.1165501 0.414414414 15.1748252 0.414414414"></polyline>
    <g id="icon/dark/puzzle" transform="translate(3.477564, 6.666667)" stroke-width="0.4" fill="#4D4D4D" fill-rule="nonzero">
        <path d="M4.49066931,1.77635684e-15 C3.8627858,1.77635684e-15 3.34774766,0.49090361 3.34774766,1.09551937 C3.34774766,1.20368459 3.37378894,1.30630282 3.40561716,1.40892112 L1.71582922,1.40892112 C1.58562297,1.40892112 1.46988405,1.5198598 1.46988405,1.64189233 L1.46988405,3.26159689 C1.36571901,3.23108874 1.25576711,3.20890105 1.14292166,3.20890105 C0.515038104,3.20890105 0,3.70257809 0,4.30442035 C0,4.90626269 0.515038104,5.39993973 1.14292166,5.39993973 C1.25576711,5.39993973 1.36571901,5.37497858 1.46988405,5.34447043 L1.46988405,6.96417499 C1.46988405,7.08898098 1.58562297,7.19991967 1.71582922,7.19991967 C3.06664351,7.19991967 4.07975424,7.19991967 4.75516138,7.19991967 C5.31365951,7.19991967 6.1514067,7.19991967 7.26840296,7.19991967 C7.39571574,7.19991967 7.51145466,7.08898098 7.51145466,6.96417499 L7.51145466,4.79809747 C7.51434788,4.69825263 7.44201129,4.60118133 7.34363326,4.57067318 C7.24236168,4.54016503 7.12662276,4.57899356 7.06585988,4.66219755 C6.9472275,4.8230587 6.75625828,4.93122384 6.53346093,4.93122384 C6.16888338,4.93122384 5.87953614,4.65110371 5.87953614,4.30442035 C5.87953614,3.95496353 6.16888338,3.67761686 6.53346093,3.67761686 C6.75625828,3.67761686 6.9472275,3.78300862 7.06585988,3.94386969 C7.12372929,4.02707368 7.24236168,4.06590222 7.34073979,4.03539414 C7.43911782,4.00488599 7.51434812,3.90781461 7.51145466,3.81074331 L7.51145466,1.64189233 C7.51145466,1.5198598 7.39571574,1.40892112 7.26840296,1.40892112 L5.57572156,1.40892112 C5.60754969,1.30630282 5.63359097,1.20368459 5.63359097,1.09551937 C5.63359097,0.49090361 5.11855291,6.52076109e-16 4.49066931,1.77635684e-15 Z M4.49066931,0.468715881 C4.85524686,0.468715881 5.14459411,0.746062552 5.14459411,1.09551937 C5.14459411,1.24806005 5.08961816,1.38395989 4.99702706,1.49212511 C4.93626409,1.55868834 4.92179676,1.66130656 4.96230538,1.74173709 C4.99992053,1.82216762 5.09251163,1.877637 5.18510273,1.877637 L7.02245779,1.877637 L7.02245779,3.3170662 C6.87489066,3.25050305 6.70706926,3.20890105 6.53346093,3.20890105 C5.90557742,3.20890105 5.39053927,3.70257809 5.39053927,4.30442035 C5.39053927,4.90626269 5.90557742,5.39993973 6.53346093,5.39993973 C6.70706926,5.39993973 6.87489066,5.35556427 7.02245779,5.28622758 L7.02245779,6.73120378 L1.95888092,6.73120378 L1.95888092,4.97005238 C1.95888092,4.88130146 1.90390489,4.79532401 1.81999419,4.75649547 C1.73608349,4.7204404 1.62902505,4.73153424 1.55958169,4.78700362 C1.44673624,4.878528 1.30206266,4.93122384 1.14292166,4.93122384 C0.778344102,4.93122384 0.488996854,4.65110371 0.488996854,4.30442035 C0.488996854,3.95496353 0.778344102,3.67761686 1.14292166,3.67761686 C1.30206266,3.67761686 1.44673624,3.73031278 1.55958169,3.8190637 C1.62902505,3.874533 1.73608349,3.88840038 1.81999419,3.84957185 C1.90390489,3.81351678 1.95888092,3.72753932 1.95888092,3.63878833 L1.95888092,1.877637 L3.7962359,1.877637 C3.89172055,1.877637 3.98141818,1.82216762 4.0219268,1.74173709 C4.05954195,1.66130656 4.04507454,1.55868834 3.98720512,1.49212511 C3.89172055,1.38395989 3.83674452,1.24806005 3.83674452,1.09551937 C3.83674452,0.746062552 4.12898523,0.468715881 4.49066931,0.468715881 Z" id="Shape"></path>
    </g>
  </g>
</svg>