<?xml version="1.0" encoding="UTF-8"?>
<svg class="ui__icon-svg" width="20px" height="20px" viewBox="0 0 20 20" version="1.1" xmlns="http://www.w3.org/2000/svg" xmlns:xlink="http://www.w3.org/1999/xlink">
  <g id="icon--doc-manuals" stroke="#4D4D4D" stroke-width="1" fill="none" fill-rule="evenodd" transform="translate(3.000000, 1.000000)">
    <polyline id="Shape" stroke-width="1.5" transform="translate(12.533498, 2.812449) scale(-1, 1) rotate(-180.000000) translate(-12.533498, -2.812449) " points="10.0267986 5.21048321 10.0267986 0.414414414 15.0401979 0.414414414"></polyline>
    <polygon id="Shape" stroke-width="1.5" stroke-linecap="square" transform="translate(7.520099, 9.207207) scale(-1, 1) rotate(-180.000000) translate(-7.520099, -9.207207) " points="10.0267986 18 0 18 0 14.003276 0 2.81244881 0 0.414414414 15.0401979 0.414414414 15.0401979 13.2039312"></polygon>
    <g id="icon" transform="translate(4.273923, 7.066667)" stroke-width="1.2">
        <path d="M4.29940641,5.82777857 L4.29940641,6.26256429 C4.29940641,6.71920714 3.91309155,7.09292143 3.44080583,7.09292143 C2.96852012,7.09292143 2.58220525,6.71920714 2.58220525,6.26256429 L2.58220525,5.82777857" id="Stroke-1"></path>
        <path d="M1.00112458,4.20535714 L0.756357525,4.20535714 C0.340312089,4.20535714 1.95399252e-13,4.57896429 1.95399252e-13,5.03571429 C1.95399252e-13,5.49246429 0.340312089,5.86607143 0.756357525,5.86607143 L6.12552001,5.86607143 C6.54156544,5.86607143 6.88187753,5.49246429 6.88187753,5.03571429 C6.88187753,4.57896429 6.54156544,4.20535714 6.12552001,4.20535714 L5.88085055,4.20535714 L5.88085055,2.67857143 C5.88085055,1.19925 4.78847509,0 3.44098756,0 C2.09340244,0 1.00112458,1.19925 1.00112458,2.67857143 C1.00112458,2.67857143 1.00112458,4.20535714 1.00112458,4.20535714 Z" id="Stroke-3" stroke-linejoin="round"></path>
    </g>
  </g>
</svg>