<?xml version="1.0" encoding="UTF-8"?>
<svg class="ui__icon-svg" width="20px" height="20px" viewBox="0 0 20 20" version="1.1" xmlns="http://www.w3.org/2000/svg" xmlns:xlink="http://www.w3.org/1999/xlink">
  <g id="icon--doc-faq" stroke="none" stroke-width="1" fill="none" fill-rule="evenodd" transform="translate(3.000000, 1.000000)">
    <polyline stroke="#4D4D4D" stroke-width="1.5" transform="translate(12.121212, 2.812449) scale(-1, 1) rotate(-180.000000) translate(-12.121212, -2.812449) " points="9.6969697 5.21048321 9.6969697 0.414414414 14.5454545 0.414414414"></polyline>
    <polygon stroke="#4D4D4D" stroke-width="1.5" stroke-linecap="square" transform="translate(7.272727, 9.207207) scale(-1, 1) rotate(-180.000000) translate(-7.272727, -9.207207) " points="9.6969697 18 0 18 0 14.003276 0 2.81244881 0 0.414414414 14.5454545 0.414414414 14.5454545 13.2039312"></polygon>
    <path d="M6.25066667,10.8266667 C6.25066667,10.59911 6.27199979,10.4017786 6.31466667,10.2346667 C6.35733355,10.0675547 6.41777739,9.91644512 6.496,9.78133333 C6.57422261,9.64622155 6.67377717,9.52000059 6.79466667,9.40266667 C6.91555616,9.28533275 7.05066592,9.16622283 7.2,9.04533333 C7.34222293,8.93155499 7.47377717,8.82844491 7.59466667,8.736 C7.70844501,8.64355509 7.80622181,8.55466709 7.888,8.46933333 C7.96977819,8.38399957 8.03199979,8.29333381 8.07466667,8.19733333 C8.11733355,8.10133285 8.13866667,7.98933397 8.13866667,7.86133333 C8.13866667,7.59822091 8.03911211,7.41688939 7.84,7.31733333 C7.64088789,7.21777728 7.39200149,7.168 7.09333333,7.168 C6.82310976,7.168 6.5457792,7.20711072 6.26133333,7.28533333 C5.97688747,7.36355595 5.72089003,7.45244395 5.49333333,7.552 L5.28,6.57066667 C5.50755669,6.44977717 5.79733157,6.34488933 6.14933333,6.256 C6.50133509,6.16711067 6.86933141,6.12266667 7.25333333,6.12266667 C7.92178112,6.12266667 8.45333136,6.25955419 8.848,6.53333333 C9.24266864,6.80711248 9.44,7.23199712 9.44,7.808 C9.44,8.03555669 9.41155584,8.23644357 9.35466667,8.41066667 C9.29777749,8.58488976 9.21422277,8.74666592 9.104,8.896 C8.99377723,9.04533408 8.85866747,9.19288816 8.69866667,9.33866667 C8.53866587,9.48444517 8.35911211,9.63555477 8.16,9.792 C8.03911051,9.89155605 7.93244491,9.98399957 7.84,10.0693333 C7.74755509,10.1546671 7.66933365,10.2417773 7.60533333,10.3306667 C7.54133301,10.419556 7.49333349,10.5173328 7.46133333,10.624 C7.42933317,10.7306672 7.41333333,10.8586659 7.41333333,11.008 L7.41333333,11.2746667 L6.25066667,11.2746667 L6.25066667,10.8266667 Z M6.048,12.6293333 C6.048,12.3946655 6.12088816,12.2044452 6.26666667,12.0586667 C6.41244517,11.9128882 6.60266549,11.84 6.83733333,11.84 C7.07911232,11.84 7.27288816,11.9128882 7.41866667,12.0586667 C7.56444517,12.2044452 7.63733333,12.3946655 7.63733333,12.6293333 C7.63733333,12.8640012 7.56444517,13.0542215 7.41866667,13.2 C7.27288816,13.3457785 7.07911232,13.4186667 6.83733333,13.4186667 C6.60266549,13.4186667 6.41244517,13.3457785 6.26666667,13.2 C6.12088816,13.0542215 6.048,12.8640012 6.048,12.6293333 Z" fill="#4D4D4D"></path>
  </g>
</svg>