<?xml version="1.0" encoding="UTF-8"?>
<svg class="ui__icon-svg" width="20px" height="20px" viewBox="0 0 20 20" version="1.1" xmlns="http://www.w3.org/2000/svg" xmlns:xlink="http://www.w3.org/1999/xlink">
  <g id="icon--doc-manuals" stroke="none" stroke-width="1" fill="none" fill-rule="evenodd" transform="translate(3.000000, 1.000000)">
    <polyline stroke="#4D4D4D" stroke-width="1.5" transform="translate(12.500000, 2.500000) scale(-1, 1) rotate(-180.000000) translate(-12.500000, -2.500000) " points="10 5 10 0 15 0"></polyline>
    <polygon stroke="#4D4D4D" stroke-width="1.5" stroke-linecap="square" transform="translate(7.500000, 9.000000) scale(-1, 1) rotate(-180.000000) translate(-7.500000, -9.000000) " points="10 18 0 18 0 13.9090909 0 2.45454545 0 0 15 0 15 13.0909091"></polygon>
    <path d="M9.25100501,7.00450293 C9.37096362,7.01060066 9.49298724,7.03011338 9.61003606,7.06163392 L8.79688941,7.87732183 C8.61817173,8.05584443 8.51980192,8.29177946 8.51980192,8.54169235 C8.51980192,8.79151143 8.61817173,9.02744646 8.79688941,9.20606288 C8.97551322,9.38458549 9.21158199,9.48289957 9.46163656,9.48289957 C9.71169112,9.48289957 9.94766603,9.38458549 10.1267592,9.20568764 L10.9380285,8.39178214 C11.1068904,9.033638 10.9255446,9.72943526 10.4565045,10.2007424 C10.1112716,10.5457798 9.6483327,10.7357474 9.15282293,10.7357474 C8.96931817,10.7357474 8.7863766,10.7095741 8.60906689,10.6580718 L8.44902822,10.6115415 L8.33122849,10.7292744 L5.27800972,13.7807634 C5.13655618,13.9221367 4.9486398,14 4.74880265,14 C4.54896551,14 4.36095526,13.9221367 4.21950172,13.7807634 C3.92683276,13.4881664 3.92683276,13.0120748 4.21950172,12.7194779 L7.27272049,9.66798896 L7.39052022,9.55034978 L7.34396352,9.39040178 C7.15144779,8.72884559 7.32697407,8.0210405 7.8015521,7.54401083 C8.15251081,7.19325096 8.62070607,7 9.11968882,7 C9.1618339,7 9.20454217,7.00140717 9.25100501,7.00450293 Z" fill="#4D4D4D"></path>
  </g>
</svg>