<?xml version="1.0" encoding="UTF-8"?>
<!DOCTYPE svg PUBLIC "-//W3C//DTD SVG 1.1//EN" "http://www.w3.org/Graphics/SVG/1.1/DTD/svg11.dtd">
<svg version="1.1" xmlns="http://www.w3.org/2000/svg" xmlns:xlink="http://www.w3.org/1999/xlink" xml:space="preserve">
	<symbol id="tr__logo" viewBox="0 0 80 73">
		<title>Thomson Reuters Kinesis</title>

	    <g stroke="none" stroke-width="1" fill="currentColor" fill-rule="nonzero">
	        <path d="M28.974,40.082 C29.548,39.956 29.914,39.382 29.814,38.798 C29.686,38.201 29.107,37.793 28.524,37.944 C28.2420971,37.9890289 27.991014,38.1477451 27.8294036,38.3830724 C27.6677933,38.6183997 27.6098105,38.9097269 27.669,39.189 C27.789,39.803 28.366,40.222 28.973,40.081 L28.974,40.082 Z M51.17,35.45 C51.745,35.317 52.107,34.747 52.01,34.164 C51.88,33.557 51.296,33.15 50.72,33.304 C50.106,33.4 49.75,33.991 49.864,34.558 C49.98,35.16 50.564,35.576 51.171,35.448 L51.17,35.45 Z M31.64,44.992 C32.2971103,44.4662623 32.418787,43.5140865 31.915,42.84 C31.365,42.206 30.419,42.09 29.761,42.587 C29.121,43.075 29.001,44.04 29.528,44.701 C30.024,45.357 30.986,45.521 31.638,44.994 L31.64,44.992 Z M49.784,30.747 C50.466,30.191 50.544,29.251 50.056,28.597 C49.511,27.965 48.561,27.847 47.911,28.347 C47.5984768,28.5953312 47.3980754,28.9581938 47.3543239,29.3549619 C47.3105724,29.75173 47.4270946,30.1495397 47.678,30.46 C48.174,31.117 49.134,31.28 49.783,30.748 L49.784,30.747 Z M37.6,48.43 C38.027,47.398 37.46,46.178 36.425,45.808 C35.333,45.383 34.195,45.918 33.748,47.023 C33.342,48.063 33.898,49.233 34.968,49.646 C36.046,50.002 37.2,49.488 37.598,48.43 L37.6,48.43 Z M45.844,26.418 C46.252,25.398 45.704,24.172 44.66,23.804 C43.572,23.384 42.438,23.924 41.982,25.018 C41.572,26.061 42.139,27.231 43.198,27.643 C44.278,27.993 45.436,27.493 45.844,26.418 Z M49.526,39.264 C49.342,40.104 49.759,40.892 50.572,41.108 C51.379,41.33 52.21,40.818 52.422,40.048 C52.5209506,39.6663911 52.4632376,39.2610605 52.2617081,38.9222354 C52.0601785,38.5834104 51.7315588,38.3392123 51.349,38.244 C50.9718181,38.1352195 50.5667958,38.1818195 50.2241741,38.3734172 C49.8815523,38.5650149 49.6297968,38.885692 49.525,39.264 L49.526,39.264 Z M46.493,43.432 C45.6432938,44.3234474 45.6503609,45.7271534 46.509,46.61 C47.396,47.457 48.789,47.443 49.592,46.602 C50.507,45.742 50.525,44.298 49.648,43.462 C48.7827473,42.5860707 47.3727423,42.5726719 46.491,43.432 L46.493,43.432 Z M41.836,45.874 C40.636,46.174 39.802,47.414 40.099,48.624 C40.359,49.888 41.631,50.684 42.869,50.409 C44.131,50.149 44.895,48.876 44.643,47.635 C44.341,46.367 43.11,45.625 41.835,45.873 L41.836,45.874 Z M27.19,33.3 C26.96,34.126 27.43,34.914 28.26,35.165 C29.024,35.365 29.85,34.888 30.058,34.101 C30.288,33.301 29.778,32.496 29.006,32.279 C28.2233358,32.0651171 27.4139892,32.5194559 27.189,33.299 L27.19,33.3 Z M29.96,26.778 C29.126,27.664 29.084,29.053 29.948,29.908 C30.815,30.785 32.208,30.792 33.118,29.908 C33.962,29.053 33.962,27.664 33.088,26.778 C32.2205917,25.9230472 30.8274083,25.9230472 29.96,26.778 Z M36.746,22.986 C35.490494,23.2421263 34.6774146,24.4639792 34.926,25.721 C35.248,26.971 36.461,27.771 37.736,27.477 C38.9773063,27.1969514 39.759266,25.9668171 39.486,24.724 C39.199,23.492 37.954,22.689 36.746,22.987 L36.746,22.986 Z M51.572,50.846 C52.242,51.493 53.232,51.516 53.867,50.839 C54.1802311,50.5543991 54.3596498,50.1514105 54.361551,49.7281992 C54.3634523,49.304988 54.1876614,48.9004036 53.877,48.613 C53.264,47.951 52.207,47.96 51.6,48.573 C50.973,49.207 50.965,50.246 51.572,50.845 L51.572,50.846 Z M25.548,24.666 C26.195,25.303 27.226,25.332 27.853,24.656 C28.463,24.036 28.485,23.008 27.846,22.384 C27.2100634,21.7647202 26.197099,21.7629485 25.559,22.38 C24.9454701,23.01626 24.9401865,24.0223312 25.547,24.665 L25.548,24.666 Z M56.142,45.219 C56.977,45.579 57.92,45.169 58.272,44.354 C58.6072552,43.5310865 58.2216339,42.5912737 57.405,42.241 C57.0152245,42.064178 56.5696103,42.0567408 56.1741513,42.2204574 C55.7786922,42.384174 55.4687328,42.7044122 55.318,43.105 C54.938,43.945 55.368,44.902 56.142,45.218 L56.142,45.219 Z M58.438,38.886 C59.518,38.886 60.392,38.039 60.396,36.969 C60.4088719,36.4561515 60.2161842,35.95944 59.8608303,35.5894361 C59.5054763,35.2194322 59.0169501,35.0068459 58.504,34.999 C57.454,34.986 56.544,35.812 56.518,36.896 C56.5340066,37.9614797 57.373776,38.8318658 58.438,38.886 Z M58.408,32.03 C59.698,31.546 60.313,30.094 59.784,28.796 C59.3,27.542 57.878,26.871 56.621,27.374 C55.301,27.891 54.657,29.32 55.161,30.602 C55.4011246,31.2228588 55.8784928,31.7226094 56.4877054,31.9909106 C57.0969179,32.2592118 57.7878684,32.2739964 58.408,32.032 L58.408,32.03 Z M22.024,30.997 C22.872,31.315 23.807,30.931 24.156,30.107 C24.4848327,29.282398 24.1044907,28.3452212 23.294,27.983 C22.467,27.633 21.492,28.048 21.174,28.87 C20.834,29.683 21.219,30.632 22.024,30.997 Z M20.941,38.235 C21.984,38.241 22.871,37.385 22.896,36.313 C22.914,35.266 22.028,34.383 21.016,34.363 C19.929,34.343 19.046,35.173 19.023,36.246 C19.0040518,37.3255665 19.8634471,38.2162939 20.943,38.236 L20.941,38.235 Z M22.847,45.851 C23.4713168,45.6134007 23.9733839,45.1339918 24.2395405,44.5213047 C24.505697,43.9086175 24.5134341,43.2144674 24.261,42.596 C24.0292315,41.9777184 23.5559323,41.4803127 22.9499172,41.2181399 C22.3439021,40.9559672 21.6573125,40.9515847 21.048,41.206 C20.4333198,41.4425445 19.9379781,41.913882 19.6712169,42.5160643 C19.4044558,43.1182467 19.3881875,43.8018092 19.626,44.416 C20.136,45.696 21.551,46.354 22.846,45.852 L22.847,45.851 Z M46.082,52.103 C45.208,52.461 44.747,53.458 45.137,54.373 C45.504,55.267 46.541,55.709 47.422,55.355 C48.314,54.973 48.762,53.973 48.357,53.049 C48.015,52.145 46.972,51.719 46.083,52.103 L46.082,52.103 Z M39.66,53.013 C38.377,52.993 37.324,54.063 37.296,55.36 C37.3116269,56.6550914 38.3472967,57.7066539 39.642,57.742 C40.942,57.712 42,56.695 42.029,55.389 C42.049,54.104 40.985,53.044 39.659,53.011 L39.66,53.013 Z M33.6,51.798 C32.226,51.22 30.67,51.922 30.097,53.302 C29.567,54.668 30.247,56.245 31.611,56.77 C32.951,57.314 34.526,56.7 35.073,55.32 C35.6326771,53.9409718 34.975529,52.3686377 33.601,51.798 L33.6,51.798 Z M28.28,47.962 C27.144,46.787 25.25,46.789 24.104,47.935 C22.912,49.118 22.899,50.985 24.054,52.149 C25.239,53.309 27.114,53.319 28.281,52.179 C28.8426998,51.620913 29.158565,50.861813 29.158565,50.07 C29.158565,49.278187 28.8426998,48.519087 28.281,47.961 L28.28,47.962 Z M32.03,17.896 C31.1390307,18.2576645 30.7067674,19.2704468 31.062,20.164 C31.462,21.077 32.477,21.501 33.375,21.154 C34.2666572,20.7699455 34.6818181,19.7387394 34.305,18.844 C33.949,17.929 32.915,17.524 32.03,17.896 Z M39.803,15.492 C38.4909044,15.4936529 37.4276529,16.5569044 37.426,17.869 C37.4631224,19.1526049 38.5098874,20.1763835 39.794,20.185 C41.064,20.209 42.152,19.139 42.127,17.843 C42.152,16.595 41.087,15.508 39.803,15.491 L39.803,15.492 Z M47.868,16.462 C46.514,15.909 44.948,16.586 44.376,17.922 C43.833,19.272 44.506,20.894 45.849,21.429 C47.251,21.979 48.796,21.309 49.339,19.935 C49.904,18.565 49.233,17.025 47.867,16.462 L47.868,16.462 Z M55.356,21.092 C54.172,19.924 52.293,19.902 51.128,21.107 C49.975,22.215 49.975,24.105 51.128,25.26 C51.6818518,25.8238483 52.4374259,26.143952 53.2277708,26.1495813 C54.0181157,26.1552105 54.7781727,25.8459019 55.34,25.29 C56.518,24.105 56.545,22.254 55.356,21.092 Z M55.672,57.479 C56.188,58.082 57.086,58.149 57.677,57.644 C58.277,57.148 58.351,56.244 57.833,55.656 C57.3216909,55.0815719 56.4484467,55.0123298 55.853,55.499 C55.256,56.009 55.183,56.901 55.673,57.479 L55.672,57.479 Z M59.978,53.607 C60.702,54.141 61.731,53.997 62.262,53.26 C62.7990461,52.5397254 62.653374,51.5209145 61.936,50.98 C61.188,50.442 60.162,50.586 59.641,51.317 C59.1055309,52.0435933 59.2564494,53.0660882 59.979,53.607 L59.978,53.607 Z M63.724,48.317 C64.1989252,48.5148132 64.7337677,48.5115757 65.2062633,48.3080275 C65.678759,48.1044793 66.0485129,47.7180224 66.231,47.237 C66.629,46.247 66.171,45.127 65.161,44.725 C64.6851729,44.5325355 64.1521306,44.5383905 63.6806459,44.7412604 C63.2091612,44.9441303 62.8384088,45.327159 62.651,45.805 C62.2659128,46.7945327 62.7433309,47.9102865 63.725,48.315 L63.724,48.317 Z M66.262,41.427 C67.3724142,41.5308331 68.3603984,40.723695 68.480137,39.6148831 C68.5998755,38.5060713 67.8069817,37.5066194 66.7,37.371 C65.563,37.261 64.557,38.074 64.44,39.181 C64.32,40.294 65.14,41.325 66.262,41.426 L66.262,41.427 Z M66.775,34.274 C67.4302705,34.1604086 68.0122979,33.7879898 68.3900054,33.2406148 C68.767713,32.6932397 68.9093433,32.0169317 68.783,31.364 C68.561,30.014 67.245,29.101 65.875,29.35 C64.517,29.613 63.607,30.897 63.86,32.266 C64.125,33.623 65.408,34.539 66.775,34.276 L66.775,34.274 Z M21.677,17.532 C22.212,18.117 23.087,18.199 23.671,17.702 C24.271,17.174 24.341,16.289 23.849,15.704 C23.343,15.127 22.434,15.047 21.853,15.55 C21.2667328,16.0538401 21.1890876,16.9332273 21.678,17.532 L21.677,17.532 Z M17.604,22.222 C18.332,22.755 19.354,22.61 19.884,21.864 C20.1465206,21.523736 20.2599185,21.0915983 20.1982967,20.6662756 C20.1366748,20.2409529 19.9052956,19.8587674 19.557,19.607 C19.2123541,19.3438552 18.7763673,19.2303573 18.3471587,19.292049 C17.91795,19.3537407 17.5315795,19.585439 17.275,19.935 C16.7358022,20.6579731 16.8834116,21.6809506 17.605,22.222 L17.604,22.222 Z M14.354,28.469 C15.3530089,28.8620908 16.4821472,28.3765167 16.884,27.381 C17.2769892,26.3904925 16.7937793,25.2688194 15.804,24.874 C14.8071315,24.4740949 13.6747647,24.9574767 13.274,25.954 C12.8927509,26.9462161 13.3718645,28.0614861 14.354,28.468 L14.354,28.469 Z M12.834,35.823 C13.954,35.961 14.964,35.119 15.11,34.003 C15.2013506,32.8743463 14.374341,31.8794475 13.248,31.763 C12.143,31.643 11.134,32.461 11.013,33.573 C10.9526038,34.1136836 11.1113302,34.6560272 11.4537081,35.078832 C11.7960859,35.5016367 12.293575,35.7696578 12.835,35.823 L12.834,35.823 Z M13.644,43.845 C14.2995123,43.7343457 14.8829509,43.3646387 15.2629173,42.8191424 C15.6428837,42.2736461 15.7874292,41.5982273 15.664,40.945 C15.419,39.58 14.128,38.651 12.752,38.925 C12.0981652,39.042093 11.5177671,39.4144735 11.1388188,39.960009 C10.7598706,40.5055444 10.6135033,41.1794181 10.732,41.833 C10.982,43.176 12.274,44.106 13.644,43.845 Z M51.748,58.605 C51.165,58.917 50.958,59.669 51.274,60.249 C51.591,60.834 52.324,61.044 52.914,60.732 C53.494,60.419 53.729,59.682 53.401,59.099 C53.2486698,58.8131794 52.9883618,58.6001478 52.678059,58.5073574 C52.3677561,58.4145671 52.0332316,58.4497251 51.749,58.605 L51.748,58.605 Z M46.92,60.373 C46.1843471,60.6015394 45.7647597,61.374627 45.974,62.116 C46.1997435,62.8643604 46.984229,63.2931116 47.736,63.079 C48.469,62.845 48.91,62.059 48.676,61.305 C48.453,60.577 47.666,60.162 46.92,60.373 Z M41.337,61.279 C40.43,61.323 39.757,62.112 39.817,63.009 C39.891,63.914 40.654,64.594 41.557,64.529 C41.988839,64.5013401 42.3917225,64.3022713 42.6760477,63.9760672 C42.960373,63.6498631 43.1025651,63.2235711 43.071,62.792 C43.039,61.896 42.237,61.225 41.338,61.279 L41.337,61.279 Z M35.117,60.647 C33.9729599,60.4242535 32.8631323,61.165031 32.63,62.307 C32.4000195,63.4577888 33.1455351,64.5774047 34.296,64.809 C34.851353,64.9199716 35.428017,64.8039104 35.8972002,64.4867372 C36.3663834,64.1695641 36.6890011,63.6777009 36.793,63.121 C37.0121559,61.9749245 36.2617448,60.867878 35.116,60.647 L35.117,60.647 Z M28.752,58.322 C27.5115273,57.7165189 26.0146785,58.2171 25.388,59.447 C24.7870471,60.6819005 25.2720377,62.1709145 26.485,62.815 C27.727,63.425 29.225,62.925 29.87,61.677 C30.487,60.464 29.982,58.951 28.752,58.322 Z M23.365,54.152 C22.169,53.048 20.31,53.11 19.215,54.287 C18.1043527,55.4709256 18.163444,57.3309589 19.347,58.442 C20.534,59.554 22.403,59.499 23.507,58.322 C24.617,57.108 24.563,55.256 23.365,54.152 Z M18.945,47.918 C18.0993927,46.3771832 16.1670218,45.810259 14.623,46.65 C13.8850506,47.0559368 13.3386983,47.7385295 13.1042494,48.5474719 C12.8698006,49.3564143 12.9664804,50.2253715 13.373,50.963 C14.2105507,52.5031229 16.133725,53.0791375 17.68,52.253 C19.2204844,51.4000607 19.7855192,49.4648389 18.946,47.917 L18.945,47.918 Z M26.615,12.458 C26.3305495,12.609053 26.1185465,12.8678573 26.0264488,13.1764786 C25.9343511,13.4851 25.9698504,13.817763 26.125,14.1 C26.2788636,14.3829561 26.5390264,14.5930319 26.8480437,14.6838421 C27.1570609,14.7746523 27.4895154,14.7387275 27.772,14.584 C28.352,14.262 28.576,13.518 28.264,12.934 C27.941,12.344 27.184,12.134 26.614,12.457 L26.615,12.458 Z M31.795,10.128 C31.057,10.342 30.649,11.13 30.862,11.878 C31.096,12.622 31.87,13.048 32.606,12.824 C32.9648772,12.7166969 33.2658929,12.470247 33.4419199,12.1396093 C33.6179469,11.8089717 33.6543459,11.4216435 33.543,11.064 C33.333,10.321 32.555,9.904 31.795,10.129 L31.795,10.128 Z M37.958,8.658 C37.0664811,8.72575459 36.3923169,9.4931826 36.44,10.386 C36.5046724,11.2869324 37.2801552,11.9693751 38.182,11.919 C39.088,11.867 39.762,11.074 39.707,10.171 C39.637,9.271 38.867,8.604 37.957,8.661 L37.958,8.658 Z M45.23,8.405 C44.6769234,8.29089344 44.1011915,8.40369291 43.6320656,8.71807308 C43.1629397,9.03245326 42.8397291,9.52207133 42.735,10.077 C42.5163374,11.2223085 43.265396,12.3286792 44.41,12.551 C45.5580309,12.7760308 46.6722908,12.0317017 46.904,10.885 C47.1211881,9.73900768 46.3740594,8.63215028 45.23,8.405 Z M52.8,10.242 C51.58,9.628 50.076,10.126 49.453,11.402 C48.8522748,12.6393602 49.359316,14.1297134 50.59,14.744 C51.833,15.344 53.344,14.861 53.945,13.594 C54.2390242,12.9979905 54.2836349,12.3094379 54.0689756,11.6804713 C53.8543164,11.0515048 53.3980557,10.5338939 52.801,10.242 L52.8,10.242 Z M60.203,14.734 C59.6356047,14.1968321 58.8773297,13.90826 58.0963628,13.9322897 C57.3153958,13.9563195 56.5762968,14.2909647 56.043,14.862 C54.953,16.057 54.993,17.922 56.19,19.032 C57.37,20.129 59.246,20.075 60.35,18.892 C61.453,17.7 61.4,15.832 60.203,14.734 Z M66.163,22.226 C65.3159526,20.68732 63.3892887,20.1155157 61.84,20.943 C60.298,21.795 59.726,23.727 60.564,25.259 C61.4029543,26.8064441 63.3326413,27.3880731 64.887,26.562 C66.4315023,25.7133069 67.0014209,23.7771025 66.163,22.227 L66.163,22.226 Z M44.997,70.594 C45.0928517,71.0758895 45.3782522,71.499081 45.7891057,71.7685332 C46.1999591,72.0379854 46.7018275,72.1311125 47.182,72.027 C47.6605027,71.9274818 48.0797957,71.6417782 48.3474717,71.2328549 C48.6151477,70.8239315 48.7092357,70.3253529 48.609,69.847 C48.407,68.854 47.414,68.22 46.425,68.42 C45.4331149,68.6303452 44.7953646,69.599904 44.995,70.594 L44.997,70.594 Z M52.36,68.816 C52.8541624,69.8941813 54.1286562,70.3678077 55.207,69.874 C56.2822942,69.3688899 56.7478336,68.0902203 56.249,67.012 C56.0097727,66.4955041 55.5743751,66.0957902 55.039355,65.9014934 C54.504335,65.7071967 53.9139082,65.7343744 53.399,65.977 C52.3368372,66.4825418 51.8745011,67.745075 52.359,68.817 L52.36,68.816 Z M59.9,65.158 C60.83,66.293 62.5,66.458 63.618,65.508 C64.1598787,65.0622599 64.5010937,64.4184035 64.5657021,63.7197316 C64.6303104,63.0210597 64.4129508,62.3255501 63.962,61.788 C63.519144,61.2479322 62.878105,60.908144 62.1825611,60.8447931 C61.4870173,60.7814422 60.7951393,60.9998269 60.262,61.451 C59.1411355,62.3768458 58.9801658,64.0348339 59.902,65.159 L59.9,65.158 Z M67.002,59.073 C68.376,60.037 70.302,59.683 71.256,58.303 C72.2137197,56.9129672 71.8672351,55.0102083 70.481,54.047 C69.066,53.082 67.178,53.421 66.216,54.823 C65.276,56.203 65.606,58.133 67.003,59.073 L67.002,59.073 Z M72.188,51.166 C74.06,51.796 76.108,50.754 76.738,48.863 C77.361,46.997 76.34,44.95 74.441,44.313 C72.5545219,43.6939171 70.5230487,44.7194978 69.901,46.605 C69.5995671,47.5130979 69.6712943,48.5037544 70.1003968,49.3589588 C70.5294994,50.2141632 71.2808136,50.8638339 72.189,51.165 L72.188,51.166 Z M30.918,3.333 C31.0148577,3.8156075 31.3010456,4.23928538 31.7125906,4.5093265 C32.1241355,4.77936761 32.6267205,4.87325447 33.108,4.77 C33.5870402,4.67146061 34.0070111,4.38596584 34.2748667,3.97676802 C34.5427223,3.5675702 34.6363478,3.06845389 34.535,2.59 C34.3219431,1.59772419 33.349249,0.962349735 32.355,1.166 C31.8758527,1.2604232 31.4544093,1.54264563 31.1846427,1.94973763 C30.9148762,2.35682962 30.8192187,2.85493977 30.919,3.333 L30.918,3.333 Z M23.278,6.187 C23.5176234,6.70303018 23.9536508,7.10181083 24.4889706,7.29452598 C25.0242905,7.48724114 25.6144466,7.45788654 26.128,7.213 C27.205,6.731 27.662,5.456 27.17,4.385 C26.6642071,3.32158331 25.4025869,2.85563142 24.327,3.335 C23.2564387,3.83899737 22.7888221,5.109133 23.277,6.187 L23.278,6.187 Z M15.555,11.393 C16.0000141,11.9370483 16.644759,12.2797334 17.3446648,12.3442157 C18.0445706,12.408698 18.7410742,12.1895822 19.278,11.736 C19.8175738,11.2936931 20.1585308,10.6545097 20.2253515,9.96002409 C20.2921723,9.26553847 20.0793417,8.57307176 19.634,8.036 C19.1911123,7.49051745 18.5476829,7.14578713 17.8482045,7.07922386 C17.1487261,7.01266059 16.4518244,7.22984327 15.914,7.682 C15.3717969,8.12458673 15.0287946,8.76537783 14.9611968,9.46201101 C14.8935989,10.1586442 15.1070038,10.8534263 15.554,11.392 L15.555,11.393 Z M9.05,19.155 C10.44,20.125 12.343,19.762 13.326,18.372 C14.2706861,16.973476 13.9139441,15.0751627 12.526,14.115 C11.1384974,13.1568897 9.23727551,13.5026884 8.276,14.888 C7.31370096,16.2807398 7.66040199,18.1896085 9.051,19.155 L9.05,19.155 Z M5.09,28.885 C6.97,29.515 9.008,28.48 9.636,26.598 C9.93510876,25.6901683 9.86122679,24.7006871 9.43061556,23.8473417 C9.00000432,22.9939963 8.24795718,22.3467277 7.34,22.048 C5.45229301,21.4239494 3.4161054,22.4483111 2.792,24.336 C2.17582617,26.2265911 3.202707,28.2597972 5.09,28.886 L5.09,28.885 Z M39.773,69.42 C38.89799,69.4227501 38.1896466,70.1319872 38.188,71.007 C38.188,71.885 38.893,72.584 39.773,72.597 C40.6471958,72.5898919 41.353197,71.8812165 41.357,71.007 C41.357,70.142 40.645,69.42 39.773,69.42 Z M33.113,68.42 C32.117,68.22 31.127,68.863 30.928,69.853 C30.718,70.843 31.362,71.831 32.355,72.033 C32.8339333,72.134835 33.3337026,72.0410374 33.743119,71.7724752 C34.1525355,71.503913 34.4376391,71.0828628 34.535,70.603 C34.7388796,69.6086863 34.1048823,68.6353978 33.113,68.42 Z M26.117,65.976 C25.6056794,65.7318976 25.017771,65.7032701 24.4851531,65.8965391 C23.9525352,66.0898081 23.5197936,66.4887951 23.284,67.004 C22.7881582,68.0785768 23.2544424,69.3518054 24.327,69.852 C25.0217693,70.1875136 25.8435058,70.1220783 26.4764219,69.6808403 C27.109338,69.2396023 27.4549549,68.4912162 27.3804544,67.7232817 C27.3059539,66.9553472 26.8229279,66.2873512 26.117,65.976 Z M19.277,61.451 C18.1522779,60.5207256 16.4865813,60.6773601 15.555,61.801 C15.1061872,62.3376574 14.8906441,63.031522 14.9563871,63.7280217 C15.0221301,64.4245215 15.363698,65.0658 15.905,65.509 C16.4425876,65.963205 17.1403038,66.1820337 17.840995,66.1161969 C18.5416862,66.0503602 19.1864285,65.7053945 19.63,65.159 C20.0746789,64.6204959 20.287204,63.9273886 20.2208148,63.2321775 C20.1544256,62.5369664 19.8145614,61.8966095 19.276,61.452 L19.277,61.451 Z M13.315,54.824 C12.3505483,53.4384803 10.4464529,53.0953315 9.059,54.057 C7.669,55.003 7.319,56.914 8.259,58.314 C9.23782382,59.6916114 11.1396869,60.0314204 12.535,59.078 C13.2032425,58.6178672 13.6610046,57.9108158 13.8073297,57.1127812 C13.9536548,56.3147466 13.7765232,55.491283 13.315,54.824 Z M9.642,46.598 C9.002,44.712 6.969,43.688 5.098,44.308 C3.20595454,44.9290463 2.17415331,46.9649073 2.792,48.858 C3.08960276,49.7675082 3.73708036,50.5210991 4.59139171,50.952289 C5.44570305,51.3834788 6.43653773,51.4567805 7.345,51.156 C9.23489312,50.5280919 10.2616822,48.4906063 9.642,46.598 Z M8.722,36.592 C8.72034399,34.2940102 6.85699035,32.4319994 4.559,32.432 C2.26442789,32.4375055 0.406298117,34.2974237 0.403,36.592 C0.403,38.902 2.266,40.775 4.558,40.775 C5.66489424,40.773679 6.7257804,40.3320127 7.50659507,39.5474459 C8.28740975,38.7628791 8.72398529,37.6998879 8.72,36.593 L8.722,36.592 Z M39.754,0.596 C39.3348148,0.594931672 38.9325197,0.761116618 38.6362978,1.05771391 C38.340076,1.35431119 38.1744007,1.75681654 38.176,2.176 C38.176,3.052 38.879,3.766 39.754,3.766 C40.634,3.766 41.338,3.052 41.338,2.176 C41.338,1.304 40.633,0.591 39.754,0.596 Z M47.184,1.173 C46.7055393,1.06994474 46.2057353,1.16273425 45.7961474,1.43065734 C45.3865595,1.69858043 45.1012854,2.11933285 45.004,2.599 C44.7982347,3.59120147 45.4343138,4.56276534 46.426,4.771 C46.9060832,4.87635244 47.408365,4.78415711 47.819738,4.51517521 C48.231111,4.2461933 48.5169905,3.82303859 48.613,3.341 C48.712658,2.86370635 48.6177208,2.36637706 48.3492525,1.95935654 C48.0807841,1.55233602 47.6609859,1.26928315 47.183,1.173 L47.184,1.173 Z M55.2,3.335 C54.1279108,2.85508221 52.8686257,3.31622887 52.36,4.375 C51.877,5.437 52.336,6.721 53.4,7.213 C53.9142567,7.45855377 54.5055413,7.4874764 55.0413082,7.29328442 C55.577075,7.09909244 56.0125087,6.69802945 56.25,6.18 C56.4895103,5.66369192 56.5133739,5.07321839 56.316309,4.53926645 C56.1192441,4.00531451 55.7175025,3.57191845 55.2,3.335 Z M63.61,7.685 C63.071744,7.23645282 62.3764554,7.0217996 61.6790191,7.08885717 C60.9815828,7.15591475 60.339931,7.49911299 59.897,8.042 C59.4508391,8.58060786 59.2375876,9.27474463 59.3043928,9.97094506 C59.371198,10.6671455 59.7125572,11.3080635 60.253,11.752 C61.379,12.687 63.05,12.525 63.961,11.402 C64.4115597,10.8645706 64.6281398,10.169094 64.5623764,9.4708752 C64.4966131,8.77265636 64.1539837,8.12985022 63.611,7.686 L63.61,7.685 Z M71.248,14.888 C70.7856653,14.2211448 70.0770237,13.7656215 69.2784008,13.6219181 C68.4797779,13.4782148 67.6567945,13.6581391 66.991,14.122 C65.6102722,15.0837337 65.26223,16.9783322 66.211,18.368 C66.6680551,19.043153 67.3769253,19.5066562 68.1786998,19.6546038 C68.9804744,19.8025514 69.8080842,19.6225675 70.476,19.155 C71.8674233,18.1899434 72.213453,16.2798418 71.249,14.888 L71.248,14.888 Z M76.738,24.335 C76.101,22.435 74.06,21.415 72.188,22.04 C70.3000047,22.6651188 69.2745636,24.7007894 69.896,26.59 C70.532,28.468 72.566,29.496 74.441,28.878 C76.335,28.251 77.356,26.2 76.741,24.335 L76.738,24.335 Z M79.128,36.591 C79.1224865,34.2918788 77.2571278,32.4309934 74.958,32.431 C72.6615403,32.4343016 70.8004054,34.2945422 70.796,36.591 C70.796,38.901 72.661,40.774 74.959,40.774 C76.0665444,40.7724098 77.1280949,40.3309139 77.9101218,39.5466365 C78.6921488,38.7623592 79.1305924,37.6995444 79.129,36.592 L79.128,36.591 Z"></path>
	    </g>
	</symbol>
</svg>