<?xml version="1.0" encoding="UTF-8"?>
<svg class="ui__icon-svg" width="20px" height="20px" viewBox="0 0 20 20" version="1.1" xmlns="http://www.w3.org/2000/svg" xmlns:xlink="http://www.w3.org/1999/xlink">
  <g id="icon--filter" stroke="none" stroke-width="1" fill="#4D4D4D" fill-rule="evenodd" transform="translate(0.000000, 4.000000)">
    <path d="M12,0.6 L12,0.6 C12,0.9312 11.7312,1.2 11.4,1.2 L0.6,1.2 C0.2688,1.2 0,0.9312 0,0.6 C0,0.2688 0.2688,0 0.6,0 L11.4,0 C11.7312,0 12,0.2688 12,0.6" id="Fill-1"></path>
    <path d="M10.8,4.2 L10.8,4.2 C10.8,4.5312 10.5312,4.8 10.2,4.8 L0.6,4.8 C0.2688,4.8 0,4.5312 0,4.2 C0,3.8688 0.2688,3.6 0.6,3.6 L10.2,3.6 C10.5312,3.6 10.8,3.8688 10.8,4.2" id="Fill-3"></path>
    <path d="M9,7.8 L9,7.8 C9,8.1312 8.7312,8.4 8.4,8.4 L0.6,8.4 C0.2688,8.4 0,8.1312 0,7.8 C0,7.4688 0.2688,7.2 0.6,7.2 L8.4,7.2 C8.7312,7.2 9,7.4688 9,7.8" id="Fill-5"></path>
    <path d="M7.2,11.4 L7.2,11.4 C7.2,11.7312 6.9312,12 6.6,12 L0.6,12 C0.2688,12 0,11.7312 0,11.4 C0,11.0688 0.2688,10.8 0.6,10.8 L6.6,10.8 C6.9312,10.8 7.2,11.0688 7.2,11.4" id="Fill-7"></path>
    <path d="M13.41825,8.42988 L13.41825,8.42988 C13.65255,8.19558 14.03265,8.19558 14.26695,8.42988 L16.81245,10.97538 C17.04675,11.20998 17.04675,11.58978 16.81245,11.82378 C16.57815,12.05838 16.19835,12.05838 15.96375,11.82378 L13.41825,9.27828 C13.18425,9.04428 13.18425,8.66418 13.41825,8.42988" id="Fill-9"></path>
    <path d="M19.35819,8.42988 L19.35819,8.42988 C19.59219,8.66418 19.59219,9.04428 19.35819,9.27828 L16.81269,11.82378 C16.57809,12.05838 16.19829,12.05838 15.96399,11.82378 C15.72969,11.58978 15.72969,11.20998 15.96399,10.97538 L18.50949,8.42988 C18.74379,8.19558 19.12389,8.19558 19.35819,8.42988" id="Fill-11"></path>
    <path d="M16.3881,0 L16.3881,0 C16.7196,0 16.9881,0.2688 16.9881,0.6 L16.9881,11.4 C16.9881,11.7312 16.7196,12 16.3881,12 C16.0569,12 15.7881,11.7312 15.7881,11.4 L15.7881,0.6 C15.7881,0.2688 16.0569,0 16.3881,0" id="Fill-13"></path>
  </g>
</svg>