<?xml version="1.0" encoding="UTF-8"?>
<svg class="ui__icon-svg" width="20px" height="20px" viewBox="0 0 20 20" version="1.1" xmlns="http://www.w3.org/2000/svg" xmlns:xlink="http://www.w3.org/1999/xlink">
  <g id="icon--expand" stroke="none" stroke-width="1" fill="#4D4D4D" fill-rule="evenodd">
    <path d="M8.75,11.25 L13.75,11.25 L13.75,6.25 L8.75,6.25 L8.75,11.25 Z M15,11.875 L15,5.625 C15,5.28 14.720625,5 14.375,5 L8.125,5 C7.78,5 7.5,5.28 7.5,5.625 L7.5,11.875 C7.5,12.220625 7.78,12.5 8.125,12.5 L14.375,12.5 C14.720625,12.5 15,12.220625 15,11.875 L15,11.875 Z M11.25,14.375 C11.25,14.029375 10.970625,13.75 10.625,13.75 L6.25,13.75 L6.25,9.375 C6.25,9.029375 5.97,8.75 5.625,8.75 C5.28,8.75 5,9.029375 5,9.375 L5,14.375 C5,14.720625 5.28,15 5.625,15 L10.625,15 C10.970625,15 11.25,14.720625 11.25,14.375 L11.25,14.375 Z" id="Page-1"></path>
  </g>
</svg>