<?xml version="1.0" encoding="UTF-8"?>
<svg class="ui__icon-svg" width="20px" height="20px" viewBox="0 0 20 20" version="1.1" xmlns="http://www.w3.org/2000/svg" xmlns:xlink="http://www.w3.org/1999/xlink">
  <g id="icon--policies" stroke="none" stroke-width="1.19999993" fill="none" fill-rule="evenodd" stroke-linecap="round" stroke-linejoin="round" transform="translate(2.000000, 1.000000)">
    <path d="M1.3,15 C0.885263555,15 0.5,14.567242 0.5,14.1666667 L0.5,0.833333333 C0.5,0.433335186 0.885263555,0 1.3,0 L11.7,0 C12.1147364,0 12.5,0.433335186 12.5,0.833333333 L12.5,14.1666667 C12.5,14.5666648 12.1147364,15 11.7,15 L1.3,15 Z" id="Stroke-1" stroke="#FFFFFF"></path>
    <path d="M12.5,3 L14.7,3 C15.1147364,3 15.5,3.43333519 15.5,3.83333333 L15.5,17.1666667 C15.5,17.5666648 15.1147364,18 14.7,18 L4.3,18 C3.88526355,18 3.5,17.567242 3.5,17.1666667 L3.5,15" id="Stroke-1" stroke="#FFFFFF"></path>
    <path d="M3,3 L10,3" id="Stroke-8" stroke="#FF8000"></path>
    <path d="M3,6 L10,6" id="Stroke-9" stroke="#FF8000"></path>
    <path d="M3,9 L10,9" id="Stroke-10" stroke="#FF8000"></path>
    <path d="M3,12 L8,12" id="Stroke-11" stroke="#FF8000"></path>
  </g>
</svg>