<?xml version="1.0" encoding="UTF-8"?>
<svg class="ui__icon-svg" width="20px" height="20px" viewBox="0 0 20 20" version="1.1" xmlns="http://www.w3.org/2000/svg" xmlns:xlink="http://www.w3.org/1999/xlink">
  <g id="icon--wrench" stroke="#FFFFFF" stroke-width="1.2" fill="none" fill-rule="evenodd">
    <path d="M12.3424614,10.9349056 L5.34542914,17.9319379 C4.90960521,18.3677618 4.32747821,18.6090702 3.71154892,18.6090702 C3.09558859,18.6090702 2.51325607,18.3677398 2.07738614,17.9318698 C1.17420462,17.0283987 1.17420462,15.5597784 2.07745416,14.6562392 L9.05640905,7.67728437 L9.07444135,7.65926644 L9.06721725,7.63443359 C8.56670441,5.91350891 9.02385941,4.06814801 10.2649979,2.81989415 C11.1799055,1.90498649 12.4027581,1.4 13.7021459,1.4 C13.8133877,1.4 13.9243695,1.40377123 14.0422086,1.41162716 L14.0327742,1.4110728 C14.3488929,1.42715082 14.6699137,1.47832624 14.9790403,1.56161935 L15.9787394,1.83098495 L15.247985,2.5644386 L13.3884713,4.43081931 C13.092294,4.72684105 12.9309758,5.11388362 12.9309758,5.52586587 C12.9309758,5.93765958 13.0923175,6.32475868 13.3885827,6.62102386 C13.6846682,6.9171093 14.0717805,7.07841622 14.4837407,7.07841622 C14.8957516,7.07841622 15.2827001,6.91706677 15.5789493,6.62097485 L18.1723376,4.01768465 L18.4386275,5.03044481 C18.8800534,6.70928637 18.4016094,8.51818664 17.1819887,9.74439415 C16.2799079,10.646475 15.0689714,11.1436918 13.777881,11.1436918 C13.3018966,11.1436918 12.8273663,11.0758404 12.3674123,10.942164 L12.3424614,10.9349056 Z" id="My-cases-icon"></path>
  </g>
</svg>