<?xml version="1.0" encoding="UTF-8"?>
<svg class="ui__icon-svg" width="20px" height="20px" viewBox="0 0 20 20" version="1.1" xmlns="http://www.w3.org/2000/svg" xmlns:xlink="http://www.w3.org/1999/xlink">
  <g id="icon--notifications" stroke="none" stroke-width="1" fill="none" fill-rule="evenodd" transform="translate(2.000000, 1.000000)">
    <g id="Group" transform="translate(8.000000, 9.000000) scale(-1, -1) translate(-8.000000, -9.000000) " stroke="#FFFFFF" stroke-width="1.19999993" stroke-linecap="round" stroke-linejoin="round">
      <path d="M15.5,13 L10.5,18 L1.5,18 C0.981579444,18 0.5,17.4806904 0.5,17 L0.5,1 C0.5,0.520002223 0.981579444,0 1.5,0 L14.5,0 C15.0184206,0 15.5,0.520002223 15.5,1 L15.5,13 Z" id="Stroke-1"></path>
      <polygon id="Stroke-3" points="15.5 13 10.5 13 10.5 18"></polygon>
    </g>
    <path d="M3,8 L13,8" id="Stroke-10" stroke="#FFFFFF" stroke-width="1.19999993" stroke-linecap="round" stroke-linejoin="round"></path>
    <g transform="translate(8.000000, 10.750977)" stroke="#FF8000">
      <path d="M3.03129541,4.24863143 L3.03129541,4.56560371 C3.03129541,4.89851052 2.75892421,5.17095984 2.42593929,5.17095984 C2.09295436,5.17095984 1.82058316,4.89851052 1.82058316,4.56560371 L1.82058316,4.24863143" id="Stroke-1"></path>
      <path d="M0.705842634,3.06583586 L0.533269683,3.06583586 C0.239936953,3.06583586 1.95399252e-13,3.33820706 1.95399252e-13,3.67119199 C1.95399252e-13,4.00417691 0.239936953,4.27654811 0.533269683,4.27654811 L4.31879634,4.27654811 C4.61212907,4.27654811 4.85206603,4.00417691 4.85206603,3.67119199 C4.85206603,3.33820706 4.61212907,3.06583586 4.31879634,3.06583586 L4.1462922,3.06583586 L4.1462922,1.9527617 C4.1462922,0.874290466 3.37611316,0 2.42606742,0 C1.47595287,0 0.705842634,0.874290466 0.705842634,1.9527617 C0.705842634,1.9527617 0.705842634,3.06583586 0.705842634,3.06583586 Z" id="Stroke-3" stroke-linejoin="round"></path>
    </g>
    <path d="M8,5 L13,5" id="Stroke-11" stroke="#FFFFFF" stroke-width="1.19999993" stroke-linecap="round" stroke-linejoin="round"></path>
    <path d="M3,11 L6,11" id="Stroke-11" stroke="#FFFFFF" stroke-width="1.19999993" stroke-linecap="round" stroke-linejoin="round"></path>
  </g>
</svg>