<?xml version="1.0" encoding="UTF-8"?>
<svg width="20px" height="20px" viewBox="0 0 20 20" version="1.1" xmlns="http://www.w3.org/2000/svg" xmlns:xlink="http://www.w3.org/1999/xlink">
    <!-- Generator: Sketch 48.1 (47250) - http://www.bohemiancoding.com/sketch -->
    <title>icon/white/activity-log</title>
    <desc>Created with Sketch.</desc>
    <defs></defs>
    <g id="Symbols" stroke="none" stroke-width="1" fill="none" fill-rule="evenodd">
        <g id="icon/white/activity-log" stroke-width="1.2">
            <g id="Group" transform="translate(1.600000, 12.000000)">
                <path d="M4.58823529,0 L1.41176471,0 C0.632068588,0 1.56737368e-16,0.632068588 0,1.41176471 L0,4.58823529 C1.56737368e-16,5.36793141 0.632068588,6 1.41176471,6 L4.58823529,6 C5.36793141,6 6,5.36793141 6,4.58823529 L6,1.41176471 C6,0.632068588 5.36793141,0 4.58823529,0 Z" id="Shape" stroke="#FF8000" fill-rule="nonzero"></path>
                <g id="Group-3" transform="translate(8.400000, 0.000000)" stroke="#4D4D4D" stroke-linecap="round">
                    <path d="M0.5,1.5 L8.5,1.5" id="Line"></path>
                    <path d="M0.5,5 L8.5,5" id="Line-Copy"></path>
                </g>
            </g>
            <g id="Group-Copy" transform="translate(1.600000, 3.000000)">
                <path d="M4.58823529,0 L1.41176471,0 C0.632068588,0 1.56737368e-16,0.632068588 0,1.41176471 L0,4.58823529 C1.56737368e-16,5.36793141 0.632068588,6 1.41176471,6 L4.58823529,6 C5.36793141,6 6,5.36793141 6,4.58823529 L6,1.41176471 C6,0.632068588 5.36793141,0 4.58823529,0 Z" id="Shape" stroke="#FF8000" fill-rule="nonzero"></path>
                <g id="Group-2" transform="translate(8.400000, 0.000000)" stroke="#4D4D4D" stroke-linecap="round">
                    <path d="M0.5,1.5 L8.5,1.5" id="Line"></path>
                    <path d="M0.5,5 L8.5,5" id="Line-Copy"></path>
                </g>
            </g>
        </g>
    </g>
</svg>