<?xml version="1.0" encoding="UTF-8"?>
<svg width="20px" height="20px" viewBox="0 0 20 20" version="1.1" xmlns="http://www.w3.org/2000/svg" xmlns:xlink="http://www.w3.org/1999/xlink">
    <!-- Generator: Sketch 48.1 (47250) - http://www.bohemiancoding.com/sketch -->
    <title>icon/dark/clipboard</title>
    <desc>Created with Sketch.</desc>
    <defs></defs>
    <g id="Symbols" stroke="none" stroke-width="1" fill="none" fill-rule="evenodd">
        <g id="icon/dark/clipboard">
            <path d="M17,18.4375 L17,3.8125 C17,3.502 16.7593077,3.25 16.4615385,3.25 L14.8461538,3.25 C14.5483846,3.25 14.3076923,3.502 14.3076923,3.8125 C14.3076923,4.123 14.5483846,4.375 14.8461538,4.375 L15.9230769,4.375 L15.9230769,17.875 L4.07692308,17.875 L4.07692308,4.375 L5.15384615,4.375 C5.45107692,4.375 5.69230769,4.123 5.69230769,3.8125 C5.69230769,3.502 5.45107692,3.25 5.15384615,3.25 L3.53846154,3.25 C3.24123077,3.25 3,3.502 3,3.8125 L3,18.4375 C3,18.7485625 3.24123077,19 3.53846154,19 L16.4615385,19 C16.7593077,19 17,18.7485625 17,18.4375 L17,18.4375 Z M7.30769231,3.8125 L8.38461538,3.8125 C8.68184615,3.8125 8.92307692,3.5605 8.92307692,3.25 C8.92307692,2.6295625 9.40607692,2.125 10,2.125 C10.5939231,2.125 11.0769231,2.6295625 11.0769231,3.25 C11.0769231,3.5605 11.3176154,3.8125 11.6153846,3.8125 L12.6923077,3.8125 L12.6923077,4.9375 L7.30769231,4.9375 L7.30769231,3.8125 Z M13.7692308,5.5 L13.7692308,3.25 C13.7692308,2.9395 13.5285385,2.6875 13.2307692,2.6875 L12.0854615,2.6875 C11.8463846,1.7183125 11.0015385,1 10,1 C8.99846154,1 8.15415385,1.7183125 7.914,2.6875 L6.76923077,2.6875 C6.472,2.6875 6.23076923,2.9395 6.23076923,3.25 L6.23076923,5.5 C6.23076923,5.8105 6.472,6.0625 6.76923077,6.0625 L13.2307692,6.0625 C13.5285385,6.0625 13.7692308,5.8105 13.7692308,5.5 L13.7692308,5.5 Z" id="clipboard" fill="#4D4D4D"></path>
            <path d="M8.39498205,13.5050065 L6.21326303,11.3622164 C5.92891232,11.0829394 5.92891232,10.6315249 6.21326303,10.3522479 C6.49761374,10.0729709 6.95722922,10.0729709 7.24157993,10.3522479 L8.90914049,11.9900539 L12.7584201,8.20945774 C13.0427708,7.93018075 13.5023863,7.93018075 13.786737,8.20945774 C14.0710877,8.48873473 14.0710877,8.94014919 13.786737,9.21942618 L9.42329894,13.5050065 C9.28148721,13.6442879 9.09531385,13.7142857 8.90914049,13.7142857 C8.72296714,13.7142857 8.53679378,13.6442879 8.39498205,13.5050065 Z" id="Path" fill="#FF8000"></path>
        </g>
    </g>
</svg>