<?xml version="1.0" encoding="UTF-8"?>
<svg width="20px" height="20px" viewBox="0 0 20 20" version="1.1" xmlns="http://www.w3.org/2000/svg" xmlns:xlink="http://www.w3.org/1999/xlink">
    <g stroke-width="1" transform="translate(1.000000, 1.000000)">
        <path fill="none"  stroke="currentColor" stroke-width="1.2" d="M9,18 C4.03448276,18 0,13.9655172 0,9 C0,4.03448276 4.03448276,0 9,0 C13.9655172,0 18,4.03448276 18,9 C18,13.9655172 13.9655172,18 9,18 Z"></path>

        <path stroke="none" d="M6.182,8.595 L7.339,8.595 L7.339,7.243 C7.339,6.7229974 7.406166,6.2896684 7.5405,5.943 C7.67483401,5.5963316 7.86549877,5.31466775 8.1125,5.098 C8.35950124,4.88133225 8.65416496,4.72750046 8.9965,4.6365 C9.33883505,4.54549955 9.72233121,4.5 10.147,4.5 C10.5803355,4.5 10.9768315,4.5433329 11.3365,4.63 C11.6961685,4.7166671 12.010332,4.82066606 12.279,4.942 L12.006,6.138 C11.797999,6.04266619 11.5466681,5.95816704 11.252,5.8845 C10.9573319,5.81083297 10.645335,5.774 10.316,5.774 C9.82199753,5.774 9.46666775,5.88883219 9.25,6.1185 C9.03333225,6.34816782 8.925,6.7229974 8.925,7.243 L8.925,8.595 L11.135,8.595 L11.135,9.869 L8.873,9.869 C8.74299935,10.7270043 8.38333628,11.4419971 7.794,12.014 L11.941,12.014 L11.941,13.288 L6,13.288 L6,12.131 C6.37266853,11.801665 6.66299896,11.4571685 6.871,11.0975 C7.07900104,10.7378315 7.21766632,10.3283356 7.287,9.869 L6.182,9.869 L6.182,8.595 Z"></path>
    </g>
</svg>