<?xml version="1.0" encoding="UTF-8"?>
<svg width="20px" height="20px" viewBox="0 0 20 20" version="1.1" xmlns="http://www.w3.org/2000/svg" xmlns:xlink="http://www.w3.org/1999/xlink">
    <g fill="none" stroke-width="1.2" transform="translate(1.000000, 1.000000)">
        <path stroke-linejoin="round" d="M3,15 L6.69573103,11.304269 M11.3833705,6.61662946 L15,3"></path>
        <path stroke-linejoin="round" d="M3,15 L6.69573103,11.304269 M11.3833705,6.61662946 L15,3" transform="translate(9.000000, 9.000000) scale(-1, 1) translate(-9.000000, -9.000000) "></path>

        <path stroke="currentColor" d="M9,18 C4.03448276,18 0,13.9655172 0,9 C0,4.03448276 4.03448276,1.13686838e-13 9,1.13686838e-13 C13.9655172,1.13686838e-13 18,4.03448276 18,9 C18,13.9655172 13.9655172,18 9,18 Z"></path>
        <path stroke="currentColor" d="M9,12.2727273 C7.19435737,12.2727273 5.72727273,10.8056426 5.72727273,9 C5.72727273,7.19435737 7.19435737,5.72727273 9,5.72727273 C10.8056426,5.72727273 12.2727273,7.19435737 12.2727273,9 C12.2727273,10.8056426 10.8056426,12.2727273 9,12.2727273 Z"></path>
    </g>
</svg>