<?xml version="1.0" encoding="UTF-8"?>
<svg width="20px" height="20px" viewBox="0 0 20 20" version="1.1" xmlns="http://www.w3.org/2000/svg" xmlns:xlink="http://www.w3.org/1999/xlink">
    <g stroke="none" stroke-width="1">
        <path d="M9.96991753,2.18000007 C11.5348158,2.18000007 12.8074484,3.50158009 12.8074484,5.12666678 C12.8074484,6.78416681 11.4979279,8.81000018 9.96991753,8.81000018 C8.44190713,8.81000018 7.13238662,6.78416681 7.13238662,5.12666678 C7.13238662,3.50158009 8.40501923,2.18000007 9.96991753,2.18000007 M10,10 C12.2526667,10 14,7.39484615 14,5.15384615 C14,2.863 12.206,1 10,1 C7.794,1 6,2.863 6,5.15384615 C6,7.39484615 7.74733333,10 10,10"></path>
        <path fill="none" stroke="currentColor" d="M3,18 L17,18 L17,14.405 C17,13.715 16.483,13.0891667 15.715,12.8475 C14.492,12.4608333 12.51,12 10,12 C7.49,12 5.507,12.4608333 4.286,12.8466667 C3.505,13.0941667 3,13.705 3,14.405 L3,18 Z" stroke-width="1.2"></path>
    </g>
</svg>