<?xml version="1.0" encoding="UTF-8"?>
<svg width="20px" height="20px" viewBox="0 0 20 20" version="1.1" xmlns="http://www.w3.org/2000/svg" xmlns:xlink="http://www.w3.org/1999/xlink">
    <g stroke-width="1" transform="translate(1.000000, 1.000000)">
        <path fill="none" stroke="currentColor" stroke-width="1.2" d="M14.5605,18 L14.25,18 C6.39225,18 0,11.60775 0,3.75 L0,3.4395 L3,0.4395 L7.8105,5.25 L5.5605,7.5 L10.5,12.4395 L12.75,10.1895 L17.5605,15 L14.5605,18 Z"></path>
        <path stroke="none" d="M18,7.5 C18,3.3645 14.6355,0 10.5,0 L9.75,0 L9.75,1.5 L10.5,1.5 C13.80825,1.5 16.5,4.19175 16.5,7.5 L16.5,8.25 L18,8.25 L18,7.5 Z"></path>
        <path stroke="none" d="M15,7.5 C15,5.01825 12.98175,3 10.5,3 L9.75,3 L9.75,4.5 L10.5,4.5 C12.1545,4.5 13.5,5.8455 13.5,7.5 L13.5,8.25 L15,8.25 L15,7.5 Z"></path>
    </g>
</svg>