<?xml version="1.0" encoding="UTF-8"?>
<svg width="20px" height="20px" viewBox="0 0 20 20" version="1.1" xmlns="http://www.w3.org/2000/svg" xmlns:xlink="http://www.w3.org/1999/xlink">
    <!-- Generator: Sketch 48.1 (47250) - http://www.bohemiancoding.com/sketch -->
    <title>icon/dark/license</title>
    <desc>Created with Sketch.</desc>
    <defs></defs>
    <g id="Symbols" stroke="none" stroke-width="1" fill="none" fill-rule="evenodd">
        <g id="icon/dark/license">
            <g id="icon" transform="translate(2.000000, 0.500000)" stroke="#4D4D4D" stroke-linecap="round" stroke-linejoin="round" stroke-width="1.19999993">
                <g id="Group" transform="translate(8.000000, 9.000000) scale(-1, -1) translate(-8.000000, -9.000000) ">
                    <path d="M14.4874268,17.4473684 L1.5,17.4473684 C0.981579444,17.4473684 0.5,16.9569094 0.5,16.502924 L0.5,1.39181287 C0.5,0.938481632 0.981579444,0.447368421 1.5,0.447368421 L14.5,0.447368421 C15.0184206,0.447368421 15.5,0.938481632 15.5,1.39181287 L15.5,16.502924 C15.5,16.9744545 14.9713135,17.4473684 14.4874268,17.4473684 Z" id="Stroke-1"></path>
                </g>
            </g>
            <g id="Group" transform="translate(7.000000, 3.500000)" stroke-width="1.2">
                <polyline id="Polygon" stroke="#FF8000" stroke-linecap="round" transform="translate(3.000000, 8.250000) scale(1, -1) translate(-3.000000, -8.250000) " points="0.5 11 0.5 5.5 3 7.43106529 5.5 5.5 5.5 11"></polyline>
                <circle id="Oval" stroke="#4D4D4D" cx="3" cy="3.5" r="3"></circle>
            </g>
        </g>
    </g>
</svg>