<?xml version="1.0" encoding="UTF-8"?>
<svg width="20px" height="20px" viewBox="0 0 20 20" version="1.1" xmlns="http://www.w3.org/2000/svg" xmlns:xlink="http://www.w3.org/1999/xlink">
    <!-- Generator: Sketch 48.1 (47250) - http://www.bohemiancoding.com/sketch -->
    <title>icon/dark/preferences</title>
    <desc>Created with Sketch.</desc>
    <defs></defs>
    <g id="Symbols" stroke="none" stroke-width="1" fill="none" fill-rule="evenodd" stroke-linecap="round" stroke-linejoin="round">
        <g id="icon/dark/preferences">
            <g id="preferences" transform="translate(2.000000, 1.000000)">
                <g id="Group" transform="translate(8.000000, 9.000000) scale(-1, -1) rotate(-180.000000) translate(-8.000000, -9.000000) " stroke="#4D4D4D" stroke-width="1.19999993">
                    <path d="M15.5,13 L10.5,18 L1.5,18 C0.981579444,18 0.5,17.4806904 0.5,17 L0.5,1 C0.5,0.520002223 0.981579444,0 1.5,0 L14.5,0 C15.0184206,0 15.5,0.520002223 15.5,1 L15.5,13 Z" id="Stroke-1"></path>
                    <polygon id="Stroke-3" points="15.5 13 10.5 13 10.5 18"></polygon>
                </g>
                <path d="M3,9 L13,9" id="Stroke-10" stroke="#4D4D4D" stroke-width="1.19999993"></path>
                <path d="M8,6 L13,6" id="Stroke-11" stroke="#4D4D4D" stroke-width="1.19999993"></path>
                <path d="M8,3 L13,3" id="Stroke-11-Copy" stroke="#4D4D4D" stroke-width="1.19999993"></path>
                <rect id="Rectangle-6" stroke="#FF8000" x="3" y="3" width="3" height="3"></rect>
                <path d="M3,12 L6,12" id="Stroke-11" stroke="#4D4D4D" stroke-width="1.19999993"></path>
            </g>
        </g>
    </g>
</svg>