<?xml version="1.0" encoding="UTF-8"?>
<svg width="20px" height="20px" viewBox="0 0 20 20" version="1.1" xmlns="http://www.w3.org/2000/svg" xmlns:xlink="http://www.w3.org/1999/xlink">
    <!-- Generator: Sketch 48.1 (47250) - http://www.bohemiancoding.com/sketch -->
    <title>icon/dark/results</title>
    <desc>Created with Sketch.</desc>
    <defs>
        <polygon id="path-1" points="9.27272727 1.98753213e-15 9.27272727 9.51048951 0 9.51048951 0 0 9.27272727 0"></polygon>
    </defs>
    <g id="Symbols" stroke="none" stroke-width="1" fill="none" fill-rule="evenodd">
        <g id="icon/dark/results">
            <g id="results" transform="translate(1.000000, 3.000000)">
                <path d="M0.454545455,5.20000005 L4.54545455,5.20000005 C4.79636364,5.20000005 5,4.93120004 5,4.60000002 C5,4.26880001 4.79636364,4 4.54545455,4 L0.454545455,4 C0.203636364,4 0,4.26880001 0,4.60000002 C0,4.93120004 0.203636364,5.20000005 0.454545455,5.20000005" id="Fill-1" fill="#4D4D4D"></path>
                <path d="M0.428571429,1.20000005 L8.57142857,1.20000005 C8.80842857,1.20000005 9,0.931200037 9,0.600000024 C9,0.268800011 8.80842857,0 8.57142857,0 L0.428571429,0 C0.192,0 0,0.268800011 0,0.600000024 C0,0.931200037 0.192,1.20000005 0.428571429,1.20000005" id="Fill-3" fill="#4D4D4D"></path>
                <path d="M8.57142857,12 L0.428571429,12 C0.192,12 0,12.2682 0,12.6 C0,12.9318 0.192,13.2 0.428571429,13.2 L8.57142857,13.2 C8.80842857,13.2 9,12.9318 9,12.6 C9,12.2682 8.80842857,12 8.57142857,12" id="Fill-5" fill="#4D4D4D"></path>
                <path d="M0.454545455,9.20000005 L4.54545455,9.20000005 C4.79636364,9.20000005 5,8.93180004 5,8.60000002 C5,8.26820001 4.79636364,8 4.54545455,8 L0.454545455,8 C0.203636364,8 0,8.26820001 0,8.60000002 C0,8.93180004 0.203636364,9.20000005 0.454545455,9.20000005" id="Fill-7" fill="#4D4D4D"></path>
                <g id="magnifying-glass" transform="translate(8.000000, 2.000000)">
                    <mask id="mask-2" fill="white">
                        <use xlink:href="#path-1"></use>
                    </mask>
                    <g id="Clip-10"></g>
                    <path d="M1.09090909,3.91608392 C1.09090909,2.37370629 2.31436364,1.11888112 3.81818182,1.11888112 C5.322,1.11888112 6.54545455,2.37370629 6.54545455,3.91608392 C6.54545455,5.45846154 5.322,6.71328671 3.81818182,6.71328671 C2.31436364,6.71328671 1.09090909,5.45846154 1.09090909,3.91608392 M9.11290909,8.55552448 L6.87218182,6.25734266 C7.35,5.60335664 7.63636364,4.79384615 7.63636364,3.91608392 C7.63636364,1.75664336 5.92309091,0 3.81818182,0 C1.71327273,0 0,1.75664336 0,3.91608392 C0,6.07496503 1.71327273,7.83216783 3.81818182,7.83216783 C4.674,7.83216783 5.46327273,7.53846154 6.10090909,7.04839161 L8.34163636,9.34657343 C8.448,9.45566434 8.58763636,9.51048951 8.72727273,9.51048951 C8.86690909,9.51048951 9.00654545,9.45566434 9.11290909,9.34657343 C9.32618182,9.12783217 9.32618182,8.77426573 9.11290909,8.55552448" id="Fill-9" fill="#FF8000" mask="url(#mask-2)"></path>
                </g>
            </g>
        </g>
    </g>
</svg>