<?xml version="1.0" encoding="UTF-8"?>
<svg width="20px" height="20px" viewBox="0 0 20 20" version="1.1" xmlns="http://www.w3.org/2000/svg" xmlns:xlink="http://www.w3.org/1999/xlink">
    <!-- Generator: Sketch 48.1 (47250) - http://www.bohemiancoding.com/sketch -->
    <title>icon/dark/users</title>
    <desc>Created with Sketch.</desc>
    <defs></defs>
    <g id="Symbols" stroke="none" stroke-width="1" fill="none" fill-rule="evenodd">
        <g id="icon/dark/users">
            <g id="Page-1" transform="translate(1.000000, 2.000000)">
                <path d="M11.875,3.64285714 L18.40625,3.64285714 C18.7345938,3.64285714 19,3.37085714 19,3.03571429 C19,2.70057143 18.7345938,2.42857143 18.40625,2.42857143 L11.875,2.42857143 C11.5466562,2.42857143 11.28125,2.70057143 11.28125,3.03571429 C11.28125,3.37085714 11.5466562,3.64285714 11.875,3.64285714" id="Fill-1" fill="#4D4D4D"></path>
                <path d="M18.40625,6.07142857 L11.875,6.07142857 C11.5466562,6.07142857 11.28125,6.34342857 11.28125,6.67857143 C11.28125,7.01371429 11.5466562,7.28571429 11.875,7.28571429 L18.40625,7.28571429 C18.7345938,7.28571429 19,7.01371429 19,6.67857143 C19,6.34342857 18.7345938,6.07142857 18.40625,6.07142857" id="Fill-3" fill="#4D4D4D"></path>
                <path d="M18.40625,9.71428571 L14.84375,9.71428571 C14.5154062,9.71428571 14.25,9.98567857 14.25,10.3214286 C14.25,10.6571786 14.5154062,10.9285714 14.84375,10.9285714 L18.40625,10.9285714 C18.7345938,10.9285714 19,10.6571786 19,10.3214286 C19,9.98567857 18.7345938,9.71428571 18.40625,9.71428571" id="Fill-5" fill="#4D4D4D"></path>
                <path d="M18.40625,13.3571429 L14.84375,13.3571429 C14.5154062,13.3571429 14.25,13.6285357 14.25,13.9642857 C14.25,14.3000357 14.5154062,14.5714286 14.84375,14.5714286 L18.40625,14.5714286 C18.7345938,14.5714286 19,14.3000357 19,13.9642857 C19,13.6285357 18.7345938,13.3571429 18.40625,13.3571429" id="Fill-7" fill="#4D4D4D"></path>
                <path d="M10.6875,15.7857143 L1.1875,15.7857143 L1.1875,12.6030714 C1.1875,11.7882857 1.7005,11.0864286 2.4640625,10.8551071 C4.780875,10.1544643 7.00565625,10.1374643 9.4061875,10.8623929 C10.1727187,11.0937143 10.6875,11.7973929 10.6875,12.6121786 L10.6875,15.7857143 Z M9.74225,9.69789286 C7.12321875,8.90739286 4.6633125,8.92257143 2.12740625,9.69060714 C0.85440625,10.0761429 0,11.2461071 0,12.6030714 L0,16.3928571 C0,16.7286071 0.266,17 0.59375,17 L11.28125,17 C11.6095938,17 11.875,16.7286071 11.875,16.3928571 L11.875,12.6121786 C11.875,11.2546071 11.0182187,10.0828214 9.74225,9.69789286 L9.74225,9.69789286 Z" id="Fill-9" fill="#4D4D4D"></path>
                <path d="M5.9375,1.21428571 C7.2473125,1.21428571 8.3125,2.3035 8.3125,3.64285714 C8.3125,5.00892857 7.2164375,6.67857143 5.9375,6.67857143 C4.6585625,6.67857143 3.5625,5.00892857 3.5625,3.64285714 C3.5625,2.3035 4.6276875,1.21428571 5.9375,1.21428571 M5.9375,7.89285714 C7.94378125,7.89285714 9.5,5.60817857 9.5,3.64285714 C9.5,1.63382143 7.90221875,0 5.9375,0 C3.97278125,0 2.375,1.63382143 2.375,3.64285714 C2.375,5.60817857 3.93121875,7.89285714 5.9375,7.89285714" id="Fill-11" fill="#FF8000"></path>
            </g>
        </g>
    </g>
</svg>