<?xml version="1.0" encoding="UTF-8"?>
<svg class="ui__icon-svg" width="20px" height="20px" viewBox="0 0 20 20" version="1.1" xmlns="http://www.w3.org/2000/svg" xmlns:xlink="http://www.w3.org/1999/xlink">
  <g id="icon--alert" stroke="#FFFFFF" stroke-width="1.2" fill="none" fill-rule="evenodd" transform="translate(2.000000, 1.000000)">
    <path d="M10.3949464,14.5694464 L10.3949464,15.6564107 C10.3949464,16.7980179 9.46092857,17.7323036 8.31905357,17.7323036 C7.17717857,17.7323036 6.24316071,16.7980179 6.24316071,15.6564107 L6.24316071,14.5694464" id="Stroke-1"></path>
    <path d="M2.42048213,10.5133929 L1.82869336,10.5133929 C0.822794031,10.5133929 1.95399252e-13,11.4474107 1.95399252e-13,12.5892857 C1.95399252e-13,13.7311607 0.822794031,14.6651786 1.82869336,14.6651786 L14.8100566,14.6651786 C15.8159559,14.6651786 16.63875,13.7311607 16.63875,12.5892857 C16.63875,11.4474107 15.8159559,10.5133929 14.8100566,10.5133929 L14.2185038,10.5133929 L14.2185038,6.69642857 C14.2185038,2.998125 11.5773987,0 8.31949296,0 C5.0613513,0 2.42048213,2.998125 2.42048213,6.69642857 C2.42048213,6.69642857 2.42048213,10.5133929 2.42048213,10.5133929 Z" id="Stroke-3" stroke-linejoin="round"></path>
  </g>
</svg>