<?xml version="1.0" encoding="UTF-8"?>
<svg class="ui__icon-svg" width="120px" height="75px" viewBox="0 0 120 75" version="1.1" xmlns="http://www.w3.org/2000/svg" xmlns:xlink="http://www.w3.org/1999/xlink">
  <g id="icon--partnership" stroke="none" stroke-width="1" fill="none" fill-rule="evenodd" transform="translate(2.000000, 7.000000)">
    <path d="M77.2627553,29.9736075 C77.2627553,29.9736075 85.1616915,37.2533434 85.1616915,40.5545509 L85.1616915,48.6087019 C85.1616915,51.2244 87.2832872,53.3452679 89.9010532,53.3452679 C92.5188191,53.3452679 94.6404149,51.2244 94.6404149,48.6087019 L94.6404149,37.5539849 C94.6404149,32.5004 76.1124362,14.2747396 72.8393511,13.8653057 C70.3116915,13.5494566 63.0446702,22.0773811 58.621266,26.1834189 C54.1990319,30.2894566 48.9845638,26.0254943 48.9845638,26.0254943 C48.9845638,25.0779472 57.3574362,4.38983396 68.4159468,1.86421132 C76.2680745,0.0697207547 80.4223298,2.91704151 85.3196702,5.07417358 C90.2170106,7.23364528 96.852117,11.3385132 99.3786064,11.3385132 L116.688819,11.3385132 L116.688819,45.7660604 L104.010521,45.7660604" id="Stroke-1" stroke="#262626" stroke-width="2.25" stroke-linecap="round"></path>
    <path d="M66.2045957,56.0304528 C66.2045957,58.6473208 68.3261915,60.7681887 70.9439574,60.7681887 C73.5617234,60.7681887 75.6833191,58.6473208 75.6833191,56.0304528 L75.6833191,45.7653585 C75.3673617,39.7642264 71.2599149,37.8703019 71.2599149,37.8703019" id="Stroke-3" stroke="#262626" stroke-width="2.25" stroke-linecap="round" stroke-linejoin="round"></path>
    <path d="M85.1616915,41.8173623 L85.1616915,52.8720792 C85.1616915,55.4889472 83.0400957,57.6098151 80.4223298,57.6098151 C77.8045638,57.6098151 75.6829681,55.4889472 75.6829681,52.8720792 L75.6829681,50.9769849" id="Stroke-5" stroke="#262626" stroke-width="2.25" stroke-linecap="round" stroke-linejoin="round"></path>
    <path d="M57.2658085,60.1687774 L57.2658085,60.1687774 C55.1687872,58.7544755 54.6141064,55.9071547 56.0288936,53.8108528 L59.7946383,48.2308528 C61.2094255,46.1333811 64.0565532,45.5812302 66.1547447,46.9955321 C68.251766,48.409834 68.8052766,51.2559849 67.3904894,53.3522868 L63.6259149,58.9322868 C62.2111277,61.0297585 59.3628298,61.5830792 57.2658085,60.1687774 Z" id="Stroke-7" stroke="#262626" stroke-width="2.25"></path>
    <path d="M46.2076489,60.1687774 L46.2076489,60.1687774 C44.1106277,58.7544755 43.5559468,55.9071547 44.970734,53.8108528 L52.0376489,43.3375321 C53.4524362,41.2400604 56.300734,40.6867396 58.3977553,42.1010415 C60.4959468,43.5153434 61.0494574,46.3614943 59.6346702,48.458966 L52.5677553,58.9322868 C51.1529681,61.0297585 48.3046702,61.5830792 46.2076489,60.1687774 Z" id="Stroke-9" stroke="#262626" stroke-width="2.25"></path>
    <path d="M36.0967766,58.5894151 L36.0967766,58.5894151 C33.9997553,57.1751132 33.4462447,54.3277925 34.8610319,52.2314906 L45.339117,36.7010755 C46.7550745,34.6047736 49.6022021,34.050283 51.6992234,35.4645849 C53.7974149,36.8788868 54.3509255,39.7262075 52.9361383,41.8225094 L42.456883,57.3529245 C41.0420957,59.4503962 38.1937979,60.003717 36.0967766,58.5894151 Z" id="Stroke-11" stroke="#262626" stroke-width="2.25"></path>
    <path d="M29.1458298,52.5884 L29.1458298,52.5884 C27.0488085,51.1740981 26.4952979,48.3267774 27.9100851,46.2304755 L34.977,35.7571547 C36.3917872,33.659683 39.2389149,33.1063623 41.3371064,34.5206642 C43.4341277,35.934966 43.9876383,38.7822868 42.5728511,40.8785887 L35.5059362,51.3519094 C34.0911489,53.4493811 31.2440213,54.0027019 29.1458298,52.5884 Z" id="Stroke-13" stroke="#262626" stroke-width="2.25"></path>
    <path d="M66.2045957,2.17970943 C52.3024681,-3.50557358 41.2439574,7.5491434 28.2908723,11.3393321 L0.333425532,11.3393321 L0.333425532,48.7657094 L17.6278936,48.7657094 L17.6489574,11.4469547" id="Stroke-15" stroke="#262626" stroke-width="2.25" stroke-linecap="round"></path>
    <path d="M12.4088881,40.5566038 C12.4088881,42.5207382 10.8158723,44.1132075 8.85106383,44.1132075 C6.88625536,44.1132075 5.29323953,42.5207382 5.29323953,40.5566038 C5.29323953,38.5924693 6.88625536,37 8.85106383,37 C10.8158723,37 12.4088881,38.5924693 12.4088881,40.5566038" id="Fill-17" fill="#FF8000"></path>
  </g>
</svg>