<?xml version="1.0" encoding="UTF-8"?>
<svg width="120px" height="75px" viewBox="0 0 120 75" version="1.1" xmlns="http://www.w3.org/2000/svg" xmlns:xlink="http://www.w3.org/1999/xlink">
  <g id="Icons" stroke="none" stroke-width="1" fill="none" fill-rule="evenodd" transform="translate(27.000000, 5.000000)">
    <path d="M65.5015533,27.26548 L58.2774867,28.54148 C57.75022,25.5421467 56.7015533,22.7188133 55.22682,20.1668133 C53.7168867,17.5781467 51.77282,15.2681467 49.4928867,13.3468133 C47.2268867,11.4401467 44.61622,9.91481333 41.7774867,8.88081333 C39.0428867,7.87614667 36.08022,7.33348 33.00022,7.33348 C29.9194867,7.33348 26.95682,7.87614667 24.22222,8.88081333 C21.38422,9.91481333 18.77282,11.4401467 16.50682,13.3468133 C14.2268867,15.2681467 12.2835533,17.5781467 10.7728867,20.1668133 C9.29815333,22.7188133 8.25022,25.5421467 7.72222,28.54148 L0.498153333,27.26548 C3.21222,11.7701467 16.7348867,0.000146666667 33.00022,0.000146666667 C49.26482,0.000146666667 62.78822,11.7701467 65.5015533,27.26548 Z" id="Stroke-1" stroke="#262626" stroke-width="2.25" stroke-linecap="round" stroke-linejoin="round"></path>
    <path d="M66,33 C66,51.2255333 51.2255333,66 33,66 C14.7744667,66 0,51.2255333 0,33 C0,14.7744667 14.7744667,0 33,0 C51.2255333,0 66,14.7744667 66,33 Z" id="Stroke-3" stroke="#262626" stroke-width="2.25" stroke-linecap="round" stroke-linejoin="round"></path>
    <path d="M32.6333333,33.3666667 L44.3666667,20.9" id="Stroke-5" stroke="#262626" stroke-width="2.25" stroke-linecap="round" stroke-linejoin="round"></path>
    <path d="M38.8666667,33 C38.8666667,36.2398667 36.2398667,38.8666667 33,38.8666667 C29.7601333,38.8666667 27.1333333,36.2398667 27.1333333,33 C27.1333333,29.7601333 29.7601333,27.1333333 33,27.1333333 C36.2398667,27.1333333 38.8666667,29.7601333 38.8666667,33" id="Fill-7" fill="#FF8000"></path>
  </g>
</svg>