<?xml version="1.0" encoding="UTF-8"?>
<svg width="20px" height="20px" viewBox="0 0 20 20" version="1.1" xmlns="http://www.w3.org/2000/svg" xmlns:xlink="http://www.w3.org/1999/xlink">
    <!-- Generator: Sketch 48.1 (47250) - http://www.bohemiancoding.com/sketch -->
    <title>icon/doctype/pdf</title>
    <desc>Created with Sketch.</desc>
    <defs></defs>
    <g id="Symbols" stroke="none" stroke-width="1" fill="none" fill-rule="evenodd">
        <g id="icon/doctype/pdf">
            <rect id="Rectangle-3" fill="#DA1F1F" x="1" y="1" width="18" height="18" rx="2"></rect>
            <path d="M16.174857,12.8811094 C15.8604024,13.3196623 15.4302675,13.5510227 14.925728,13.5510227 C14.2414225,13.5510227 13.4465962,13.118987 12.5572706,12.2660491 C10.9621872,12.5997838 9.09881246,13.1947494 7.59361195,13.8538008 C7.12301615,14.85066 6.67224349,15.654719 6.25378526,16.2431674 C5.67728504,17.0518427 5.18143512,17.4282107 4.68884379,17.4282107 C4.49387104,17.4282107 4.30541548,17.3652111 4.14492955,17.2449146 C3.55919664,16.8060901 3.48017565,16.3170289 3.51710643,15.9841089 C3.6194807,15.0678999 4.75238644,14.1109584 6.88378078,13.1341938 C7.7291153,11.281138 8.53426044,8.99686112 9.01354583,7.08895226 C8.4522524,5.86779283 7.90670886,4.28275668 8.30425776,3.35324173 C8.44383436,3.02792508 8.68904382,2.7984655 9.01164498,2.69011713 C9.14117423,2.64721226 9.26663023,2.62548828 9.38502594,2.62548828 C9.66933858,2.62548828 9.92242299,2.74985809 10.0986588,2.97415822 C10.2643042,3.18596706 10.765042,3.82302288 10.012306,6.98820729 C10.7710161,8.5539634 11.8444524,10.1482322 12.8730831,11.2406771 C13.6111554,11.1059884 14.2446811,11.0389156 14.7614403,11.0389156 C15.6431625,11.0389156 16.1759432,11.2450219 16.3945408,11.6667387 C16.5748499,12.0164948 16.5009883,12.4254488 16.174857,12.8811094 Z M8.15028903,12.6005984 C9.32528499,12.1438517 10.6029268,11.7465743 11.8029053,11.4641626 C11.043109,10.5824404 10.2860282,9.48130595 9.65304559,8.34704246 C9.2511519,9.73792051 8.7200005,11.2395909 8.15028903,12.6005984 Z M9.36737521,3.57428326 C9.35461237,3.57672721 9.33723318,3.57998581 9.3127937,3.5886754 C9.25821219,3.60714079 9.21449267,3.63728282 9.17566105,3.7255365 C9.03119656,4.06415909 9.14551903,4.70718901 9.36764676,5.39719704 C9.55067132,4.20699429 9.45291339,3.70109702 9.36737521,3.57428326 Z M4.45911266,16.0891987 C4.45395322,16.14025 4.43793178,16.276568 4.70106353,16.4783295 C4.78524397,16.4522607 5.27430515,16.2290468 6.18616936,14.5462527 C4.98347532,15.2215971 4.49441414,15.7763733 4.45911266,16.0891987 Z M13.7626802,12.0602144 C14.2213278,12.4113282 14.6267516,12.6049432 14.925728,12.6049432 C15.0585158,12.6049432 15.2309499,12.573715 15.4050133,12.330678 C15.4891938,12.2139115 15.5209651,12.1381491 15.5326418,12.0979598 C15.465569,12.0618437 15.2629928,11.9863528 14.7619834,11.9863528 C14.4779423,11.9860813 14.1409491,12.0105207 13.7626802,12.0602144 Z" id="Path" fill="#FFFFFF"></path>
        </g>
    </g>
</svg>