<?xml version="1.0" encoding="UTF-8"?>
<svg width="20px" height="20px" viewBox="0 0 20 20" version="1.1" xmlns="http://www.w3.org/2000/svg" xmlns:xlink="http://www.w3.org/1999/xlink">
    <!-- Generator: Sketch 48.1 (47250) - http://www.bohemiancoding.com/sketch -->
    <title>icon/doctype/zip</title>
    <desc>Created with Sketch.</desc>
    <defs></defs>
    <g id="Symbols" stroke="none" stroke-width="1" fill="none" fill-rule="evenodd">
        <g id="icon/doctype/zip">
            <rect id="Rectangle-3" fill="#EFC314" x="1" y="1" width="18" height="18" rx="2"></rect>
            <g id="Group" transform="translate(8.000000, 1.000000)" fill="#FFFFFF">
                <rect id="Rectangle" x="0" y="0" width="2" height="1"></rect>
                <rect id="Rectangle-Copy" x="2" y="1" width="2" height="1"></rect>
                <rect id="Rectangle-Copy-2" x="0" y="2" width="2" height="1"></rect>
                <rect id="Rectangle-Copy-3" x="2" y="3" width="2" height="1"></rect>
                <rect id="Rectangle-Copy-4" x="0" y="4" width="2" height="1"></rect>
                <rect id="Rectangle-Copy-5" x="2" y="5" width="2" height="1"></rect>
                <rect id="Rectangle-Copy-6" x="0" y="6" width="2" height="1"></rect>
                <rect id="Rectangle-Copy-7" x="2" y="7" width="2" height="1"></rect>
                <rect id="Rectangle-Copy-8" x="0" y="8" width="2" height="1"></rect>
            </g>
            <path d="M8,11 L12,11 L12,14.99646 C12,15.5487447 11.5522847,15.99646 11,15.99646 L9,15.99646 C8.44771525,15.99646 8,15.5487447 8,14.99646 L8,11 Z M9,13.99646 L9,14.99646 L11,14.99646 L11,13.99646 L9,13.99646 Z" id="Combined-Shape" fill="#FFFFFF"></path>
        </g>
    </g>
</svg>