<?xml version="1.0" encoding="UTF-8"?>
<svg version="1.1" xmlns="http://www.w3.org/2000/svg" xmlns:xlink="http://www.w3.org/1999/xlink">
	<style>
		symbol > g {
			fill: none;
			stroke: currentColor;
			stroke-width: 1;
		}
	</style>

	<!-- DEVNOTE: todo declare stroke-width in % to make them scale better -->
	<!-- DEVNOTE: todo ie shim for use + symbol -->
	<!-- https://github.com/jonathantneal/svg4everybody -->

	<def>
		<!-- Dashboard -->
		<symbol id="icon--dashboard" viewBox="0 0 20 20">
			<!-- <g fill="none" stroke-width="1" stroke-linejoin="round" transform="translate(2.000000, 2.000000)">
				<path stroke="currentColor" d="M0,6 L0,0 L6,0 L6,6 L0,6 Z"></path>
				<path stroke="currentColor" d="M0,16 L0,8 L16,8 L16,16 L0,16 Z"></path>
				
				<path d="M8,6 L8,0 L16,0 L16,6 L8,6 Z"></path>
			</g> -->

			<g id="icon--dashboard" viewBox="0 0 20 20">
				<g fill="none" stroke-width="1.2" stroke-linejoin="round" transform="translate(2.000000, 2.000000)">
					<path stroke="#4D4D4D" d="M-0.6,6.6 L-0.6,-0.6 L6.6,-0.6 L6.6,6.6 L-0.6,6.6 Z"></path>
					<path stroke="#4D4D4D" d="M-0.6,16.6 L-0.6,9.4 L16.6,9.4 L16.6,16.6 L-0.6,16.6 Z"></path>
					
					<path stroke="#FF8099" d="M9.4,6.6 L9.4,-0.6 L16.6,-0.6 L16.6,6.6 L9.4,6.6 Z"></path>
				</g>
			</g>
		</symbol>

		<!-- Products -->
		<symbol id="icon--products" viewBox="0 0 20 20">
			<g fill="none" stroke-width="1" stroke-linejoin="round" transform="translate(2.000000, 2.000000)">
				<path stroke="currentColor" stroke-linecap="round" d="M0,16 L0,0 L16,0 L16,16 L0,16 Z"></path>
				<path stroke="currentColor" d="M0,4 L16,4"></path>
				
				<path d="M2,7 L14,7"></path>
				<path d="M2,10 L11,10"></path>
				<path d="M13,13 L2,13"></path>
			</g>
		</symbol>

		<!-- Billing -->
		<symbol id="icon--billing" viewBox="0 0 20 20">
			<g stroke-width="1" transform="translate(1.000000, 1.000000)">
				<path fill="none" stroke="currentColor" d="M9,18 C4,18 0,14 0,9 C0,4 4,0 9,0 C14,0 18,4 18,9 C18,14 14,18 9,18 Z"></path>
				
				<path stroke="none" d="M6.182,8.595 L7.339,8.595 L7.339,7.243 C7.339,6.7229974 7.406166,6.2896684 7.5405,5.943 C7.67483401,5.5963316 7.86549877,5.31466775 8.1125,5.098 C8.35950124,4.88133225 8.65416496,4.72750046 8.9965,4.6365 C9.33883505,4.54549955 9.72233121,4.5 10.147,4.5 C10.5803355,4.5 10.9768315,4.5433329 11.3365,4.63 C11.6961685,4.7166671 12.010332,4.82066606 12.279,4.942 L12.006,6.138 C11.797999,6.04266619 11.5466681,5.95816704 11.252,5.8845 C10.9573319,5.81083297 10.645335,5.774 10.316,5.774 C9.82199753,5.774 9.46666775,5.88883219 9.25,6.1185 C9.03333225,6.34816782 8.925,6.7229974 8.925,7.243 L8.925,8.595 L11.135,8.595 L11.135,9.869 L8.873,9.869 C8.74299935,10.7270043 8.38333628,11.4419971 7.794,12.014 L11.941,12.014 L11.941,13.288 L6,13.288 L6,12.131 C6.37266853,11.801665 6.66299896,11.4571685 6.871,11.0975 C7.07900104,10.7378315 7.21766632,10.3283356 7.287,9.869 L6.182,9.869 L6.182,8.595 Z"></path>
			</g>
		</symbol>

		<!-- Policies -->
		<symbol id="icon--policies" viewBox="0 0 20 20">
			<g fill="none" stroke-width="1" stroke-linejoin="round" transform="translate(2.000000, 1.000000)">
				<path stroke="currentColor" d="M12,3 L16,3 L16,18 L4,18 L4,15"></path>
				<path stroke="currentColor" d="M0,15 L0,0 L12,0 L12,15 L0,15 Z"></path>
				
				<path d="M2,3 L10,3"></path>
				<path d="M2,6 L10,6"></path>
				<path d="M2,9 L10,9"></path>
				<path d="M2,12 L8,12"></path>
			</g>
		</symbol>

		<!-- Notifications -->
		<symbol id="icon--notifications" viewBox="0 0 20 20">
			<g fill="none" stroke-width="1" transform="translate(2.000000, 1.000000)">
				<g stroke="currentColor" stroke-linecap="round" stroke-linejoin="round">
					<path d="M1,5 L6,0 L15,0 L15,18 L1,18 Z"></path>
					<polygon points="1 5 6 5 6 0"></polygon>
				</g>
				
				<path stroke="currentColor" d="M8,5 L13,5"></path>
				<path stroke="currentColor" d="M3,8 L13,8"></path>
				<path stroke="currentColor" d="M3,11 L6,11"></path>

				<g transform="translate(8.000000, 11.000000)">
					<path d="M3.03129541,4.24863143 L3.03129541,4.56560371 C3.03129541,4.89851052 2.75892421,5.17095984 2.42593929,5.17095984 C2.09295436,5.17095984 1.82058316,4.89851052 1.82058316,4.56560371 L1.82058316,4.24863143"></path>
					<path stroke-linejoin="round" d="M0.705842634,3.06583586 L0.533269683,3.06583586 C0.239936953,3.06583586 1.95399252e-13,3.33820706 1.95399252e-13,3.67119199 C1.95399252e-13,4.00417691 0.239936953,4.27654811 0.533269683,4.27654811 L4.31879634,4.27654811 C4.61212907,4.27654811 4.85206603,4.00417691 4.85206603,3.67119199 C4.85206603,3.33820706 4.61212907,3.06583586 4.31879634,3.06583586 L4.1462922,3.06583586 L4.1462922,1.9527617 C4.1462922,0.874290466 3.37611316,0 2.42606742,0 C1.47595287,0 0.705842634,0.874290466 0.705842634,1.9527617 C0.705842634,1.9527617 0.705842634,3.06583586 0.705842634,3.06583586 Z"></path>
				</g>
			</g>
		</symbol>

		<!-- Buoy -->
		<symbol id="icon--buoy" viewBox="0 0 20 20">
			<g fill="none" stroke-width="1" transform="translate(1.000000, 1.000000)">
				<path d="M3,15 L6.69573103,11.304269 M11.3833705,6.61662946 L15,3"></path>
				<path transform="translate(9.000000, 9.000000) scale(-1, 1) translate(-9.000000, -9.000000)" d="M3,15 L6.69573103,11.304269 M11.3833705,6.61662946 L15,3"></path>
				
				<path stroke="currentColor" d="M9,18 C4.03448276,18 0,13.9655172 0,9 C0,4.03448276 4.03448276,1.13686838e-13 9,1.13686838e-13 C13.9655172,1.13686838e-13 18,4.03448276 18,9 C18,13.9655172 13.9655172,18 9,18 Z"></path>
				<path stroke="currentColor" d="M9,12.2727273 C7.19435737,12.2727273 5.72727273,10.8056426 5.72727273,9 C5.72727273,7.19435737 7.19435737,5.72727273 9,5.72727273 C10.8056426,5.72727273 12.2727273,7.19435737 12.2727273,9 C12.2727273,10.8056426 10.8056426,12.2727273 9,12.2727273 Z"></path>
			</g>
		</symbol>

		<!-- Wrench -->
		<symbol id="icon--wrench" viewBox="0 0 20 20">
			<g fill="none" stroke-width="1">
				<path stroke="currentColor" d="M12.3424614,10.9349056 L5.34542914,17.9319379 C4.90960521,18.3677618 4.32747821,18.6090702 3.71154892,18.6090702 C3.09558859,18.6090702 2.51325607,18.3677398 2.07738614,17.9318698 C1.17420462,17.0283987 1.17420462,15.5597784 2.07745416,14.6562392 L9.05640905,7.67728437 L9.07444135,7.65926644 L9.06721725,7.63443359 C8.56670441,5.91350891 9.02385941,4.06814801 10.2649979,2.81989415 C11.1799055,1.90498649 12.4027581,1.4 13.7021459,1.4 C13.8133877,1.4 13.9243695,1.40377123 14.0422086,1.41162716 L14.0327742,1.4110728 C14.3488929,1.42715082 14.6699137,1.47832624 14.9790403,1.56161935 L15.9787394,1.83098495 L15.247985,2.5644386 L13.3884713,4.43081931 C13.092294,4.72684105 12.9309758,5.11388362 12.9309758,5.52586587 C12.9309758,5.93765958 13.0923175,6.32475868 13.3885827,6.62102386 C13.6846682,6.9171093 14.0717805,7.07841622 14.4837407,7.07841622 C14.8957516,7.07841622 15.2827001,6.91706677 15.5789493,6.62097485 L18.1723376,4.01768465 L18.4386275,5.03044481 C18.8800534,6.70928637 18.4016094,8.51818664 17.1819887,9.74439415 C16.2799079,10.646475 15.0689714,11.1436918 13.777881,11.1436918 C13.3018966,11.1436918 12.8273663,11.0758404 12.3674123,10.942164 L12.3424614,10.9349056 Z"></path>
			</g>
		</symbol>

		<!-- Contact -->
		<symbol id="icon--contact" viewBox="0 0 20 20">
			<g stroke-width="1" transform="translate(1.000000, 1.000000)">
				<path fill="none" stroke="currentColor" d="M14,18 L14,18 C6.39225,18 0,11.60775 0,3.75 L0,3.5 L3,0.5 L7.8,5 L5.5,7.5 L10.5,12.4 L12.75,10.1 L17.5,15 L14,18 Z"></path>
				<path stroke="none" d="M18,7 C18,3.3645 14.6355,0 10.5,0 L9.75,0 L9.75,1.5 L10.5,1.5 C13.80825,1.5 16.5,4.19175 16.5,7 L16.5,8.25 L18,8.25 L18,7 Z"></path>
				<path stroke="none" d="M15,7.5 C15,5.01825 12.98175,3 10.5,3 L9.75,3 L9.75,4.5 L10.5,4.5 C12.1545,4.5 13.5,5.8455 13.5,7.5 L13.5,8.25 L15,8.25 L15,7.5 Z"></path>
			</g>
		</symbol>

		<!-- User / Profile -->
		<symbol id="icon--profile" viewBox="0 0 20 20">
			<g fill="none" stroke-width="1" transform="translate(3.000000, 1.000000)">
				<path d="M7,-8.8817842e-16 C5.07033333,-8.8817842e-16 3.5,1.51425 3.5,3.375 L3.5,5.625 C3.5,7.48575 5.07033333,9 7,9 C8.92966667,9 10.5,7.48575 10.5,5.625 L10.5,3.375 C10.5,1.51425 8.92966667,-8.8817842e-16 7,-8.8817842e-16 L7,-8.8817842e-16 Z"></path>
				<path stroke="currentColor" d="M0,18 L14,18 L14,14 C14,12.925 13.5,12.225 12.715,11.955 C11.505,11.525 9.50,11 7,11 C4.5,11 2.505,11.525 1.285,11.955 C0.5,12.225 0,12.925 0,14 L0,18 Z"></path>
			</g>
		</symbol>

		<!-- Locked -->
		<symbol id="icon--unlocked" viewBox="0 0 20 20">
			<g fill="none" stroke-width="1" transform="translate(3.000000, 1.000000)">
				<path stroke="currentColor" d="M3,6.55 L3,3.25 C3,1.45795 5.3458,0 7,0 C8.6542,0 11,1.45795 11,3.25 L11,6.55"></path>
				<path stroke="currentColor" d="M14,18 L0,18 L0,9.73833333 C0,8.36083333 0.796153846,7.10833333 1.98230769,6.62166667 C3.04153846,6.18583333 4.83615385,5.66666667 7,5.66666667 C9.16384615,5.66666667 10.9584615,6.18583333 12.0176923,6.62166667 C13.2030769,7.1075 14,8.35916667 14,9.73833333 L14,18 Z"></path>
				<path stroke="currentColor" stroke-width="2" stroke-linecap="round" d="M7,11 L7,14"></path>
			</g>
		</symbol>

		<!-- Unlocked -->
		<symbol id="icon--locked" viewBox="0 0 20 20">
			<g fill="none" stroke-width="1" transform="translate(3.000000, 1.000000)">
				<path stroke="currentColor" d="M3,6.55 L3,3.25 C3,1.45795 5.3458,0 7,0 C8.6542,0 11,1.45795 11,3.25 L11,6.55"></path>
				<path stroke="currentColor" d="M14,18 L0,18 L0,9.73833333 C0,8.36083333 0.796153846,7.10833333 1.98230769,6.62166667 C3.04153846,6.18583333 4.83615385,5.66666667 7,5.66666667 C9.16384615,5.66666667 10.9584615,6.18583333 12.0176923,6.62166667 C13.2030769,7.1075 14,8.35916667 14,9.73833333 L14,18 Z"></path>
				<path stroke-width="2" stroke-linecap="round" d="M7,11 L7,14"></path>
			</g>
		</symbol>
	</def>

	<def>
		<!-- Add -->
		<symbol id="icon--add" viewBox="0 0 20 20">
			<g fill="currentColor" stroke="none" stroke-width="1">
				<!-- PATH: Add -->
				<!-- <path stroke-width="1.5" d="M5,10 L15,10 M10,5 L10,15" id="Line"></path> -->

				<!-- POLYGON: Add -->
				<polygon points="9.25 15.75 10.75 15.75 10.75 10.75 15.75 10.75 15.75 9.25 10.75 9.25 10.75 4.25 9.25 4.25 9.25 9.25 4.25 9.25 4.25 10.75 9.25 10.75"></polygon>
			</g>
		</symbol>

		<!-- Arrow -->
		<symbol id="icon--arrow" viewBox="0 0 20 20">
			<g fill="none" stroke="currentColor" stroke-width="1">
				<polygon points="11.8256357 5 11.5191455 5.29278855 16.2002655 9.76416871 3 9.76416871 3 10.2348899 16.201251 10.2348899 11.5191455 14.7072114 11.8256357 15 17.0606061 10.0004707"></polygon>
			</g>
		</symbol>

		<!-- Caret -->
		<symbol id="icon--caret" viewBox="0 0 20 20">
			<g fill="currentColor" stroke="none" stroke-width="1">
				<polygon points="5.1500001 8.07433556 10.00868 12.8499999 14.8499999 8.07433556 13.9115428 7.1500001 10.00868 10.9886474 6.0908788 7.1500001"></polygon>
			</g>
		</symbol>

		<!-- Tick 1 -->
		<symbol id="icon--tick-1" viewBox="0 0 20 20">
			<g fill="currentColor" stroke="none" stroke-width="1">
				<polygon points="4.94000006 10.0025897 8.66460943 13.7284503 15.0611854 7.33230162 13.999372 6.26999998 8.66460943 11.601604 5.99999762 8.93615294"></polygon>
			</g>
		</symbol>

		<!-- Tick 2 -->
		<symbol id="icon--tick-2" viewBox="0 0 20 20">
			<g fill="currentColor" stroke="none" stroke-width="1">
				<polygon points="1.94000006 10.00143 7.6664875 15.7303729 18.0600009 5.33112669 17.0013934 4.26999998 7.6664875 13.6022601 3.01282052 8.93589354"></polygon>
			</g>
		</symbol>

		<!-- Cross -->
		<symbol id="icon--cross" viewBox="0 0 20 20">
			<g fill="currentColor" stroke="none" stroke-width="1">
				<polygon points="10 8.72727273 4.27272727 3 3 4.27272727 8.72727273 10 3 15.7272727 4.27272727 17 10 11.2727273 15.7272727 17 17 15.7272727 11.2727273 10 17 4.27272727 15.7272727 3"></polygon>
			</g>
		</symbol>

		<!-- Bell -->
		<symbol id="icon--bell" viewBox="0 0 20 20">
			<g fill="none" stroke="currentColor" stroke-width="1" transform="translate(2.000000, 1.000000)">
				<path d="M10.3949464,14.5694464 L10.3949464,15.6564107 C10.3949464,16.7980179 9.46092857,17.7323036 8.31905357,17.7323036 C7.17717857,17.7323036 6.24316071,16.7980179 6.24316071,15.6564107 L6.24316071,14.5694464"></path>
				<path stroke-linejoin="round" d="M2.42048213,10.5133929 L1.82869336,10.5133929 C0.822794031,10.5133929 1.95399252e-13,11.4474107 1.95399252e-13,12.5892857 C1.95399252e-13,13.7311607 0.822794031,14.6651786 1.82869336,14.6651786 L14.8100566,14.6651786 C15.8159559,14.6651786 16.63875,13.7311607 16.63875,12.5892857 C16.63875,11.4474107 15.8159559,10.5133929 14.8100566,10.5133929 L14.2185038,10.5133929 L14.2185038,6.69642857 C14.2185038,2.998125 11.5773987,0 8.31949296,0 C5.0613513,0 2.42048213,2.998125 2.42048213,6.69642857 C2.42048213,6.69642857 2.42048213,10.5133929 2.42048213,10.5133929 Z"></path>
			</g>
		</symbol>

		<!-- Chat -->
		<symbol id="icon--chat" viewBox="0 0 20 20">
			<g fill="none" stroke="currentColor" stroke-width="1">
				<polyline points="15.225 6.425 17.5198975 6.425 18.525 6.425 18.525 14.675 16.325 14.675 16.325 17.425 12.475 14.675 9.175 14.675"></polyline>
				<polygon points="15.225 2.575 2.025 2.575 2.025 11.925 4.775 11.925 4.775 15.775 9.175 11.925 15.225 11.925 15.225 4.50927734"></polygon>
			</g>
		</symbol>

		<!-- Clock -->
		<symbol id="icon--clock" viewBox="0 0 20 20">
			<g fill="none" stroke="currentColor" stroke-width="1">
				<path stroke-width="1.2" d="M18,10 C18,14.4184 14.4184,18 10,18 C5.5816,18 2,14.4184 2,10 C2,5.5816 5.5816,2 10,2 C14.4184,2 18,5.5816 18,10"></path>
				<polyline stroke-width="1.5" stroke-linecap="round" stroke-linejoin="round" points="10 5.5 10 10.5 13 12.5"></polyline>
			</g>
		</symbol>

		<!-- Cross in circle -->
		<symbol id="icon--cross-in-circle" viewBox="0 0 20 20">
			<g fill="none" stroke="none" stroke-width="1">
				<path fill="none" stroke="currentColor" stroke-width="1.2" d="M18,10 C18,14.4184 14.4184,18 10,18 C5.5816,18 2,14.4184 2,10 C2,5.5816 5.5816,2 10,2 C14.4184,2 18,5.5816 18,10"></path>
				<g stroke="currentColor" stroke-width="1.5" stroke-linecap="round" stroke-linejoin="round" transform="translate(7.000000, 7.000000)">
					<path d="M0,0 L6.01586914,6.01721191"></path>
					<path d="M6.01794434,0 L0,6.04077148"></path>
				</g>
			</g>
		</symbol>

		<!-- Cross in solid circle -->
		<symbol id="icon--cross-in-solid-circle" viewBox="0 0 20 20">
			<g fill="none" stroke="none" stroke-width="1">
				<path fill="currentColor" stroke="currentColor" stroke-width="1.2" d="M18,10 C18,14.4184 14.4184,18 10,18 C5.5816,18 2,14.4184 2,10 C2,5.5816 5.5816,2 10,2 C14.4184,2 18,5.5816 18,10"></path>
				<g stroke="#FFFFFF" stroke-width="1.5" stroke-linecap="round" stroke-linejoin="round" transform="translate(7.000000, 7.000000)">
					<path d="M0,0 L6.01586914,6.01721191"></path>
					<path d="M6.01794434,0 L0,6.04077148"></path>
				</g>
			</g>
		</symbol>

		<!-- Download -->
		<symbol id="icon--download" viewBox="0 0 20 20">
			<g fill="none" stroke="currentColor" stroke-width="1">
				<polygon stroke-linejoin="round" transform="translate(10.010000, 8.150000) rotate(90.000000) translate(-10.010000, -8.150000) " points="11.3762324 4.33999991 11.1429961 4.56402917 14.7052879 7.970795 4.65999985 7.970795 4.65999985 8.32943969 14.7060379 8.32943969 11.1429961 11.7369228 11.3762324 11.9599998 15.3599997 8.15083464"></polygon>
				<polyline points="2.5 12.8000002 2.5 17.8807544 17.5 17.8807544 17.5 12.8000002"></polyline>
			</g>
		</symbol>

		<!-- Expand -->
		<symbol id="icon--expand" viewBox="0 0 20 20">
			<g fill="currentColor" stroke="none" stroke-width="1" >
				<path d="M8.75,11.25 L13.75,11.25 L13.75,6.25 L8.75,6.25 L8.75,11.25 Z M15,11.875 L15,5.625 C15,5.28 14.720625,5 14.375,5 L8.125,5 C7.78,5 7.5,5.28 7.5,5.625 L7.5,11.875 C7.5,12.220625 7.78,12.5 8.125,12.5 L14.375,12.5 C14.720625,12.5 15,12.220625 15,11.875 L15,11.875 Z M11.25,14.375 C11.25,14.029375 10.970625,13.75 10.625,13.75 L6.25,13.75 L6.25,9.375 C6.25,9.029375 5.97,8.75 5.625,8.75 C5.28,8.75 5,9.029375 5,9.375 L5,14.375 C5,14.720625 5.28,15 5.625,15 L10.625,15 C10.970625,15 11.25,14.720625 11.25,14.375 L11.25,14.375 Z"></path>
			</g>
		</symbol>

		<!-- External 1 -->
		<symbol id="icon--external-1" viewBox="0 0 20 20">
			<g fill="none" stroke="currentColor" stroke-width="1">
				<polygon stroke-linejoin="round" transform="translate(12.355868, 9.555868) rotate(-45.000000) translate(-12.355868, -9.555868) " points="13.8347188 5.65724009 13.5943026 5.89765633 17.0737153 9.37617447 6.98309846 9.34290281 6.98309846 9.70154749 13.7595531 9.72666629 17.0786163 9.73896931 13.5912155 13.2263701 13.8297804 13.4544956 17.7286374 9.55563861"></polygon>
				<polyline points="9 7.89999997 4 7.89999997 4 17.9 14 17.9 14 12.9"></polyline>
			</g>
		</symbol>

		<!-- External 2 -->
		<symbol id="icon--external-2" viewBox="0 0 20 20">
			<g fill="none" stroke="currentColor" stroke-width="1">
				<polyline points="9.3 5.55000019 3.3 5.55000019 3.3 17.9370969 15.3 17.9370969 15.3 11.7435486"></polyline>
				<polyline points="11.1 3.06999993 17.6516152 3.06999993 17.6516152 9.86282948"></polyline>
				<path d="M8.4,13.29 L17.4,3.38"></path>
			</g>
		</symbol>

		<!-- Filter -->
		<symbol id="icon--filter" viewBox="0 0 20 20">
			<g fill="currentColor" stroke="none" stroke-width="1" transform="translate(0.000000, 4.000000)">
				<path d="M12,0.6 L12,0.6 C12,0.9312 11.7312,1.2 11.4,1.2 L0.6,1.2 C0.2688,1.2 0,0.9312 0,0.6 C0,0.2688 0.2688,0 0.6,0 L11.4,0 C11.7312,0 12,0.2688 12,0.6"></path>
				<path d="M10.8,4.2 L10.8,4.2 C10.8,4.5312 10.5312,4.8 10.2,4.8 L0.6,4.8 C0.2688,4.8 0,4.5312 0,4.2 C0,3.8688 0.2688,3.6 0.6,3.6 L10.2,3.6 C10.5312,3.6 10.8,3.8688 10.8,4.2"></path>
				<path d="M9,7.8 L9,7.8 C9,8.1312 8.7312,8.4 8.4,8.4 L0.6,8.4 C0.2688,8.4 0,8.1312 0,7.8 C0,7.4688 0.2688,7.2 0.6,7.2 L8.4,7.2 C8.7312,7.2 9,7.4688 9,7.8"></path>
				<path d="M7.2,11.4 L7.2,11.4 C7.2,11.7312 6.9312,12 6.6,12 L0.6,12 C0.2688,12 0,11.7312 0,11.4 C0,11.0688 0.2688,10.8 0.6,10.8 L6.6,10.8 C6.9312,10.8 7.2,11.0688 7.2,11.4"></path>
				
				<path d="M13.41825,8.42988 L13.41825,8.42988 C13.65255,8.19558 14.03265,8.19558 14.26695,8.42988 L16.81245,10.97538 C17.04675,11.20998 17.04675,11.58978 16.81245,11.82378 C16.57815,12.05838 16.19835,12.05838 15.96375,11.82378 L13.41825,9.27828 C13.18425,9.04428 13.18425,8.66418 13.41825,8.42988"></path>
				<path d="M19.35819,8.42988 L19.35819,8.42988 C19.59219,8.66418 19.59219,9.04428 19.35819,9.27828 L16.81269,11.82378 C16.57809,12.05838 16.19829,12.05838 15.96399,11.82378 C15.72969,11.58978 15.72969,11.20998 15.96399,10.97538 L18.50949,8.42988 C18.74379,8.19558 19.12389,8.19558 19.35819,8.42988"></path>
				<path d="M16.3881,0 L16.3881,0 C16.7196,0 16.9881,0.2688 16.9881,0.6 L16.9881,11.4 C16.9881,11.7312 16.7196,12 16.3881,12 C16.0569,12 15.7881,11.7312 15.7881,11.4 L15.7881,0.6 C15.7881,0.2688 16.0569,0 16.3881,0"></path>
			</g>
		</symbol>

		<!-- List -->
		<symbol id="icon--list" viewBox="0 0 20 20">
			<g fill="currentColor" stroke="none" stroke-width="1">
				<polygon points="3 5.25 3 6.70000005 17.5 6.70000005 17.5 5.25"></polygon>
				<polygon points="3 9.25 3 10.6972656 12.25 10.6972656 12.25 9.25"></polygon>
				<polygon points="3 13.25 3 14.7 15.75 14.7 15.75 13.25"></polygon>
			</g>
		</symbol>

		<!-- Mail -->
		<symbol id="icon--mail" viewBox="0 0 20 20">
			<g fill="none" stroke="currentColor" stroke-width="1" stroke-linecap="round">
				<polyline points="2 6 10 11.5 18 6"></polyline>
            	<rect x="1.5" y="5" width="17" height="12"></rect>
			</g>
		</symbol>

		<!-- Paper -->
		<symbol id="icon--paper" viewBox="0 0 20 20">
			<g fill="none" stroke="currentColor" stroke-width="1" stroke-linecap="round" stroke-linejoin="round" transform="translate(2.000000, 2.000000)">
				<path d="M1.45454545,16 C0.654545455,16 0,15.3454545 0,14.5454545 L0,8.72727273 L2.90909091,8.72727273"></path>
				<path d="M2.90909091,0 L2.90909091,14.5454545 C2.90909091,15.3454545 2.25454545,16 1.45454545,16 L14.5454545,16 C15.3454545,16 16,15.3454545 16,14.5454545 L16,0 L2.90909091,0 Z"></path>
			</g>
		</symbol>

		<!-- Paperclip -->
		<symbol id="icon--paperclip" viewBox="0 0 20 20">
			<g fill="none" stroke="currentColor" stroke-width="1" stroke-linecap="round">
				<path d="M14.4701153,6.15492656 L14.5,13.7271363 C14.4997647,17.0772667 12.875402,18.9995235 10.0431799,19 C5.9454467,18.9992852 5.50094125,15.3091622 5.5,13.7226094 L5.51929563,4.17501162 C5.51929563,2.30374182 6.49960781,1 8.41364029,1 C10.3039062,1 11.6209507,2.18461337 11.6209507,4.11211179 L11.6028316,13.7209416 C11.6028316,14.6687276 11.3138678,15.8016392 10.0431799,15.8016392 C8.67624912,15.8016392 8.39716841,14.6703954 8.39646247,13.7209416 L8.41364029,4.13260188"></path>
			</g>
		</symbol>

		<!-- Play -->
		<symbol id="icon--play" viewBox="0 0 20 20">
			<g fill="currentColor" stroke="none" stroke-width="1">
				<polygon points="2 18 2 2 17 10"></polygon>
			</g>
		</symbol>

		<!-- Question -->
		<symbol id="icon--question" viewBox="0 0 20 20">
			<g fill="none" stroke="none" stroke-width="1">
				<path stroke="currentColor" stroke-width="1.5" stroke-linecap="round" stroke-linejoin="round" d="M7.777778,8.16060043 C7.777778,6.94155281 8.79365102,5.95107662 10.0126986,6.00187027 C11.1555558,6.02726709 12.0952383,6.96694963 12.1206351,8.10980678 C12.146032,9.02409249 11.5873018,9.8367909 10.8000002,10.1669496 C10.2920637,10.3955211 9.93777827,10.8526639 9.93777827,11.4113941"></path>
				<circle fill="currentColor" cx="9.91111131" cy="13.9111111" r="1"></circle>
				<path stroke="currentColor" stroke-width="1.2" d="M10,18 C5.5862069,18 2,14.4137931 2,10 C2,5.5862069 5.5862069,2 10,2 C14.4137931,2 18,5.5862069 18,10 C18,14.4137931 14.4137931,18 10,18 Z"></path>
			</g>
		</symbol>

		<!-- Search -->
		<symbol id="icon--search" viewBox="0 0 20 20">
			<g fill="none" stroke="currentColor" stroke-width="1" transform="translate(2.000000, 2.000000)">
				<circle cx="5.98227236" cy="5.98227236" r="5.98227236"></circle>
				<path stroke-linecap="round" d="M10.1068813,10.3131665 L14.9599766,15.1662619"></path>
			</g>
		</symbol>

		<!-- Settings -->
		<symbol id="icon--settings" viewBox="0 0 20 20">
			<g fill="none" stroke="currentColor" stroke-width="1" stroke-linecap="square" transform="translate(3.000000, 3.000000)">
				<path d="M8,2.32258065 L15,2.32258065"></path>
				<path d="M0,2.32258065 L3.5,2.32258065"></path>
				<rect id="Rectangle-path" x="3.75" y="0.258064516" width="2.5" height="4.12903226"></rect>
				<path d="M8,13.6774194 L15,13.6774194"></path>
				<path d="M0,13.6774194 L3.5,13.6774194"></path>
				<rect id="Rectangle-path" x="3.75" y="11.6129032" width="2.5" height="4.12903226"></rect>
				<path d="M13.5,8 L15,8"></path>
				<path d="M0,8 L9,8"></path>
				<rect id="Rectangle-path" x="9.25" y="5.93548387" width="2.5" height="4.12903226"></rect>
			</g>
		</symbol>

		<!-- Timer -->
		<symbol id="icon--timer" viewBox="0 0 20 20">
			<g fill="currentColor" stroke="none" stroke-width="1">
				<path d="M4.50015827,16.410614 C4.65364643,15.4618835 4.21590229,12.9513245 8.96559711,9.76544428 C9.33860511,9.51524741 9.49699272,9.40390281 9.99247273,9.04589844 C12.9200954,6.93057251 14.0127773,5.71417236 14.230154,3.61047363 C14.4135036,3.61047363 15.4082393,3.61047363 15.4401607,3.61047363 C15.2885341,5.11959839 15.125143,6.87503052 11.0283718,9.76544428 C10.6447357,10.0361128 10.355217,10.2623744 9.99247273,10.519043 C6.62209125,12.9038391 5.7971706,14.2189331 5.71993061,16.410614 C5.63979145,16.410614 4.48447224,16.410614 4.50015827,16.410614 Z"></path>
				<path d="M4.50015827,16.410614 C4.65364643,15.4618835 4.21590229,12.9513245 8.96559711,9.76544428 C9.33860511,9.51524741 9.49699272,9.40390281 9.99247273,9.04589844 C12.9200954,6.93057251 14.0127773,5.71417236 14.230154,3.61047363 C14.4135036,3.61047363 15.4082393,3.61047363 15.4401607,3.61047363 C15.2885341,5.11959839 15.125143,6.87503052 11.0283718,9.76544428 C10.6447357,10.0361128 10.355217,10.2623744 9.99247273,10.519043 C6.62209125,12.9038391 5.7971706,14.2189331 5.71993061,16.410614 C5.63979145,16.410614 4.48447224,16.410614 4.50015827,16.410614 Z" transform="translate(9.970080, 10.010544) scale(-1, 1) translate(-9.970080, -10.010544)"></path>
				<rect x="3.5" y="2.3499999" width="13" height="1.25"></rect>
				<rect x="3.5" y="16.3499999" width="13" height="1.25"></rect>
			</g>
		</symbol>

		<!-- User 2 -->
		<symbol id="icon--user-2" viewBox="0 0 20 20">
			<g fill="currentColor" stroke="none" stroke-width="1">
				<path d="M6.5,5.5 C6.5,3.55555556 8.08148148,2 10,2 C11.9185185,2 13.5,3.55555556 13.5,5.5 C13.5,7.41851852 11.9444444,9 10,9 C8.08148148,8.97407407 6.5,7.41851852 6.5,5.5 Z M10,10 C6.69565217,10 4,13.9466667 4,15.5733333 C4,17.2 6.69565217,17.6533333 10,17.6533333 C13.3043478,17.6533333 16,17.2 16,15.5733333 C16,13.9466667 13.3043478,10 10,10 Z"></path>
			</g>
		</symbol>

		<!-- Visibility -->
		<symbol id="icon--visibility" viewBox="0 0 20 20">
			<g fill="currentColor" stroke="none" stroke-width="1" transform="translate(2.000000, 4.000000)">
				<path d="M8,12 C12.707,12 15.744,6.716 15.871,6.492 C16.042,6.188 16.043,5.816 15.872,5.512 C15.746,5.287 12.731,0 8,0 C3.245,0 0.251,5.289 0.126,5.514 C-0.043,5.817 -0.042,6.186 0.128,6.489 C0.254,6.713 3.269,12 8,12 Z M8,2 C10.839,2 13.036,4.835 13.818,6 C13.034,7.166 10.837,10 8,10 C5.159,10 2.962,7.162 2.181,5.999 C2.958,4.835 5.146,2 8,2 Z"></path>
				<circle cx="8" cy="6" r="2"></circle>
			</g>
 		</symbol>

 		<!-- User 1 -->
		<symbol id="icon--user-1" viewBox="0 0 20 20">
			<g fill="none" stroke-width="1" transform="translate(3.000000, 1.000000)">
				<path stroke="currentColor" d="M7,-8.8817842e-16 C5.07033333,-8.8817842e-16 3.5,1.51425 3.5,3.375 L3.5,5.625 C3.5,7.48575 5.07033333,9 7,9 C8.92966667,9 10.5,7.48575 10.5,5.625 L10.5,3.375 C10.5,1.51425 8.92966667,-8.8817842e-16 7,-8.8817842e-16 L7,-8.8817842e-16 Z"></path>
				<path stroke="currentColor" d="M0,18 L14,18 L14,14 C14,12.925 13.5,12.225 12.715,11.955 C11.505,11.525 9.50,11 7,11 C4.5,11 2.505,11.525 1.285,11.955 C0.5,12.225 0,12.925 0,14 L0,18 Z"></path>
			</g>
		</symbol>

 		<!-- Padlock -->
		<symbol id="icon--padlock" viewBox="0 0 20 20">
			<g fill="none" stroke-width="1" transform="translate(3.000000, 1.000000)">
				<path stroke="currentColor" d="M3,6.55 L3,3.25 C3,1.45795 5.3458,0 7,0 C8.6542,0 11,1.45795 11,3.25 L11,6.55"></path>
				<path stroke="currentColor" d="M14,18 L0,18 L0,9.73833333 C0,8.36083333 0.796153846,7.10833333 1.98230769,6.62166667 C3.04153846,6.18583333 4.83615385,5.66666667 7,5.66666667 C9.16384615,5.66666667 10.9584615,6.18583333 12.0176923,6.62166667 C13.2030769,7.1075 14,8.35916667 14,9.73833333 L14,18 Z"></path>
				<path stroke="currentColor" stroke-width="2" stroke-linecap="round" d="M7,11 L7,14"></path>
			</g>
		</symbol>
	</def>

	<use xlink:href="#icon--dashboard" x="0" y="0" />

	<!-- <use xlink:href="#icon-products" x="0" y="24" />
	<use xlink:href="#icon-billings" x="0" y="48" />
	<use xlink:href="#icon-policies" x="0" y="72" /> -->
</svg>